<svg version="1.1" id="Layer_1" xmlns="http://www.w3.org/2000/svg" xmlns:xlink="http://www.w3.org/1999/xlink" x="0px" y="0px"
	 width="100%" viewBox="0 0 1825 1250" enable-background="new 0 0 1825 1250" xml:space="preserve">
<path fill="#FFFFFF" opacity="1.000000" stroke="none" 
	d="
M1339.000000,1251.000000 
	C892.666748,1251.000000 446.833496,1251.000000 1.000180,1251.000000 
	C1.000120,834.333496 1.000120,417.666962 1.000060,1.000347 
	C609.333069,1.000232 1217.666138,1.000232 1825.999512,1.000116 
	C1825.999634,417.666351 1825.999634,834.332703 1825.999756,1250.999512 
	C1663.833374,1251.000000 1501.666626,1251.000000 1339.000000,1251.000000 
M1240.036377,952.983215 
	C1240.036377,960.584106 1240.036377,968.184998 1240.036377,975.971558 
	C1253.737915,975.971558 1266.959595,975.971558 1280.519897,975.971558 
	C1280.519897,967.828186 1280.519897,959.901611 1280.679688,951.055603 
	C1280.675903,939.090393 1280.632812,927.125122 1280.677856,915.160095 
	C1280.740479,898.549377 1280.869385,881.939026 1281.888794,865.538879 
	C1295.955444,865.538879 1310.021973,865.538879 1324.247192,865.538879 
	C1324.247192,856.879944 1324.247192,848.795288 1324.427734,840.478699 
	C1324.427734,840.478699 1324.318848,840.205688 1324.406128,839.245850 
	C1324.406128,827.980957 1324.406128,816.716064 1324.406128,805.322937 
	C1281.405640,805.322937 1238.910278,805.322937 1196.334717,805.322937 
	C1196.334717,817.428711 1196.334717,829.211121 1196.127563,841.917297 
	C1196.127563,849.666199 1196.127563,857.415161 1196.127563,865.670471 
	C1211.114258,865.670471 1225.545776,865.670471 1240.014893,866.648438 
	C1240.037231,894.747620 1240.059448,922.846741 1239.939331,951.501465 
	C1239.989868,951.685730 1240.040405,951.869934 1240.036377,952.983215 
M1441.933960,893.512512 
	C1441.893799,893.330017 1441.853760,893.147583 1441.953857,892.041809 
	C1442.006470,882.840820 1442.059082,873.639771 1443.027954,864.423889 
	C1444.954712,864.423889 1446.881348,864.423889 1448.958740,864.423889 
	C1448.958740,855.892151 1448.958740,847.948853 1449.098022,839.491394 
	C1449.048828,839.320801 1448.999512,839.150146 1449.109985,838.056458 
	C1449.109985,827.134888 1449.109985,816.213379 1449.109985,805.275269 
	C1409.746460,805.275269 1371.010742,805.275269 1331.884888,805.275269 
	C1331.884888,807.337891 1331.884644,809.139893 1331.884766,810.941833 
	C1331.886353,830.598572 1331.861450,850.255371 1331.896362,869.912048 
	C1331.944824,897.225586 1332.038208,924.538940 1331.920898,952.805542 
	C1331.920898,960.556335 1331.920898,968.307190 1331.920898,975.925598 
	C1371.706787,975.925598 1410.782471,975.925598 1449.982178,975.925598 
	C1449.982178,967.708252 1449.982178,959.762451 1450.187012,950.921875 
	C1450.187012,939.615723 1450.187012,928.309509 1450.187012,917.293762 
	C1446.944946,916.824402 1444.406128,916.456848 1441.986206,915.137817 
	C1441.938721,908.113770 1441.891235,901.089661 1441.933960,893.512512 
M1610.782593,951.332397 
	C1613.832153,951.183228 1616.881714,951.034058 1619.880615,950.887390 
	C1619.880615,950.053589 1619.982910,949.683838 1619.865967,949.406494 
	C1599.799683,901.814819 1579.740723,854.219971 1559.515503,806.695862 
	C1558.961304,805.393494 1556.625854,804.114624 1555.093750,804.081299 
	C1544.611450,803.853333 1534.117188,804.143005 1523.637695,803.859863 
	C1520.150269,803.765625 1518.841064,805.090637 1517.581665,808.086487 
	C1498.208374,854.166809 1478.700806,900.190613 1459.239502,946.234009 
	C1458.634155,947.665955 1458.192505,949.167053 1457.681274,950.616882 
	C1461.321533,951.113892 1464.371460,951.530334 1467.070068,952.634338 
	C1463.888184,960.238037 1460.706421,967.841675 1457.339600,975.887451 
	C1471.919189,975.887451 1485.813843,975.887451 1499.851440,975.887451 
	C1502.896118,968.330261 1505.839722,960.750427 1509.058472,953.289246 
	C1509.634277,951.954651 1511.338867,950.192383 1512.539673,950.179077 
	C1530.495483,949.979736 1548.454346,950.041199 1566.537720,950.041199 
	C1570.133911,958.789307 1573.655396,967.356018 1577.125244,975.796753 
	C1591.522339,975.796753 1605.711426,975.796753 1620.599121,975.796753 
	C1616.939209,967.414734 1613.510620,959.562683 1610.782593,951.332397 
M1078.174561,940.430664 
	C1074.369507,945.018494 1070.564575,949.606384 1066.781006,954.168457 
	C1089.717896,977.351929 1139.013428,986.020874 1168.087891,972.164734 
	C1188.585327,962.396240 1198.650024,941.102844 1192.734863,919.219482 
	C1197.042603,899.010559 1192.479980,882.337769 1173.362671,871.182739 
	C1178.965454,863.187378 1184.556274,855.209045 1190.373535,846.907532 
	C1186.284180,844.032532 1182.526001,841.390320 1178.557617,838.600342 
	C1182.444580,833.053528 1186.221069,827.664429 1190.118530,822.102600 
	C1188.557495,820.867065 1187.331299,819.766907 1185.981934,818.847900 
	C1162.309082,802.724487 1136.243042,798.745789 1108.839722,805.329041 
	C1087.298462,810.504028 1074.972778,825.767761 1073.578979,847.031921 
	C1073.215332,852.579468 1074.424072,858.230164 1074.226929,864.321411 
	C1073.976440,866.953979 1073.594727,869.581726 1073.497681,872.219910 
	C1073.031372,884.913574 1076.237427,896.084412 1086.904663,904.722290 
	C1080.233276,912.867493 1073.562012,921.012634 1066.673950,929.422302 
	C1068.482300,930.935486 1070.129395,932.260193 1071.715820,933.653809 
	C1074.097412,935.745911 1076.436523,937.886414 1078.174561,940.430664 
M1628.049561,952.865540 
	C1628.049561,960.599609 1628.049561,968.333618 1628.049561,975.954773 
	C1641.734619,975.954773 1654.661987,975.954773 1667.823608,975.954773 
	C1667.823608,967.773010 1667.823608,959.825867 1667.963623,950.966248 
	C1667.968750,933.609863 1667.949463,916.253296 1668.016846,898.897156 
	C1668.023560,897.190796 1668.561157,895.486572 1669.112793,894.473816 
	C1681.118164,912.824707 1693.123535,931.175598 1705.501709,950.096191 
	C1710.406250,942.585693 1714.720703,935.910339 1719.104492,929.280945 
	C1727.050659,917.264709 1735.038208,905.275818 1743.052856,894.303040 
	C1743.132812,913.516968 1743.212769,932.730957 1743.122559,952.884827 
	C1743.122559,960.504028 1743.122559,968.123230 1743.122559,975.850098 
	C1756.798096,975.850098 1770.001343,975.850098 1783.125854,975.850098 
	C1783.125854,967.555725 1783.125854,959.613647 1783.388672,950.806885 
	C1783.388672,902.381470 1783.388672,853.956055 1783.388672,804.998840 
	C1770.405396,804.998840 1757.788452,805.154419 1745.179810,804.898743 
	C1741.653564,804.827271 1739.872925,806.137939 1738.152222,808.978455 
	C1728.501343,824.910095 1718.672729,840.733948 1708.893066,856.587280 
	C1707.957275,858.104065 1706.938965,859.569824 1705.701782,861.449951 
	C1696.389526,846.351990 1686.728271,832.150208 1678.668213,817.091309 
	C1673.544312,807.518311 1667.455444,803.521545 1656.552368,804.777344 
	C1647.250488,805.848694 1637.727417,804.998840 1628.021240,804.998840 
	C1628.021240,807.435120 1628.021118,809.242432 1628.021118,811.049744 
	C1628.021118,842.024170 1628.000854,872.998657 1628.029419,903.973083 
	C1628.044189,919.955322 1628.146362,935.937378 1628.049561,952.865540 
M467.957428,293.575317 
	C429.484100,299.057709 391.014587,304.566925 352.536194,310.013336 
	C325.562225,313.831329 298.572693,317.539795 271.604645,321.398712 
	C270.131775,321.609467 267.975739,322.418610 267.521423,323.519989 
	C264.054901,331.923615 260.932556,340.469208 257.427094,349.851837 
	C258.301605,356.787659 259.176117,363.723480 259.446686,370.878448 
	C258.896698,374.044373 257.552643,377.307922 257.927948,380.360046 
	C260.075012,397.820953 262.579376,415.238953 265.061127,432.657440 
	C268.057465,453.687531 271.152283,474.703552 273.457733,495.972015 
	C252.970367,501.908691 237.387802,514.980103 222.964417,530.382568 
	C222.964417,489.720337 222.964417,449.058136 222.964417,407.964600 
	C217.103912,407.964600 211.672791,407.964600 205.689774,407.964600 
	C205.689774,401.651672 205.689774,395.755127 205.689774,389.762268 
	C186.247726,389.762268 167.381683,389.762268 147.951111,389.762268 
	C147.951111,396.080872 147.951111,401.976807 147.951111,408.297119 
	C142.630127,408.297119 137.876022,408.297119 132.805405,408.297119 
	C132.805405,410.399536 132.805420,412.046783 132.805420,413.694061 
	C132.805405,525.791565 132.804260,637.889038 132.816422,749.986572 
	C132.816605,751.644653 132.982178,753.302795 132.821655,755.876831 
	C132.821655,764.773682 132.821655,773.670593 132.821655,782.537476 
	C163.388718,782.537476 193.216339,782.537476 223.022812,782.537476 
	C223.022812,773.128357 223.022812,764.034485 223.195724,754.347534 
	C223.367035,753.563171 223.538330,752.778870 224.001953,752.641602 
	C225.324127,753.896240 226.732574,755.072388 227.955612,756.417175 
	C247.438675,777.839783 271.733307,788.285400 300.600830,788.332336 
	C305.386047,788.340088 310.171265,788.333374 315.251221,788.333374 
	C330.491760,896.293945 345.742615,1004.327637 361.033112,1112.642090 
	C594.402527,1079.713867 827.127441,1046.876587 1059.878418,1014.035645 
	C1058.521118,1004.514587 1057.276733,995.784912 1056.753784,986.892822 
	C1058.749512,986.562012 1059.906982,986.062561 1059.500244,983.367615 
	C1057.017334,966.915955 1054.790527,950.425659 1052.470947,933.949280 
	C1047.645752,899.676270 1042.850952,865.398987 1037.973755,831.133423 
	C1035.302002,812.362610 1032.487305,793.612122 1030.113647,774.288879 
	C1039.286987,765.957703 1048.460327,757.626526 1057.781128,750.105347 
	C1057.941772,751.738831 1058.102417,753.372375 1058.114258,755.936340 
	C1058.114258,764.716370 1058.114258,773.496338 1058.114258,782.526794 
	C1088.263672,782.526794 1118.119507,782.526794 1148.223999,782.526794 
	C1148.223999,773.182922 1148.223999,764.094482 1148.533203,754.122070 
	C1148.570435,753.290649 1148.640137,752.459290 1148.640137,751.627869 
	C1148.645386,638.517151 1148.646606,525.406433 1148.632324,412.295715 
	C1148.632202,411.009491 1148.430786,409.723267 1148.280396,407.922852 
	C1142.962158,407.922852 1137.887329,407.922852 1132.176758,407.922852 
	C1132.176758,401.524353 1132.176758,395.648346 1132.176758,389.690155 
	C1112.779541,389.690155 1094.042603,389.690155 1074.822266,389.690155 
	C1074.822266,395.940826 1074.822266,401.860565 1074.822266,408.303223 
	C1068.939575,408.303223 1063.531982,408.303223 1057.801270,408.303223 
	C1057.801270,448.564941 1057.801270,488.289032 1057.801270,529.050049 
	C1038.782593,508.897186 1017.822754,494.168427 989.981079,491.877350 
	C985.813721,462.087738 981.654602,432.296936 977.476685,402.508789 
	C972.652222,368.111450 967.849609,333.710968 962.960876,299.322754 
	C960.669617,283.205383 958.198730,267.113495 955.715332,250.349411 
	C948.429504,244.287567 940.999512,238.387589 933.925049,232.088348 
	C930.875732,229.373123 927.917053,228.677368 923.988708,229.262589 
	C903.593262,232.300980 883.165222,235.120697 862.748474,238.015747 
	C828.338562,242.895004 793.929932,247.783051 759.517639,252.645523 
	C751.541443,253.772552 743.552795,254.811340 735.412720,255.912003 
	C733.217896,240.360809 731.150391,225.381561 728.977905,210.417557 
	C727.019958,196.931427 724.947021,183.461990 722.907288,169.219498 
	C720.149353,168.504776 717.339783,167.016647 714.641663,167.197083 
	C692.064148,168.706985 669.367432,169.476578 646.972961,172.465393 
	C600.324585,178.691223 553.797119,185.873474 507.312500,193.246292 
	C493.084625,195.502945 479.132904,199.560013 465.125366,203.074188 
	C463.327881,203.525131 461.958038,205.680908 460.422729,207.948288 
	C461.287079,215.907501 462.151398,223.866699 462.236938,231.952652 
	C461.606842,233.264801 460.285675,234.671204 460.449890,235.874969 
	C463.048431,254.923508 465.837646,273.946014 467.957428,293.575317 
M1351.846313,620.684021 
	C1347.881836,637.336426 1329.539307,647.451843 1312.253906,642.294922 
	C1297.870117,638.003662 1292.049072,626.658752 1290.067627,613.128723 
	C1285.417969,581.380310 1281.278931,549.557129 1276.909912,517.767395 
	C1275.607178,508.287201 1274.227173,498.817535 1272.888306,489.383606 
	C1266.970215,490.117981 1261.726685,490.768677 1255.985229,491.481140 
	C1255.216431,486.619446 1254.504639,482.118317 1253.756104,477.385040 
	C1238.586060,479.413269 1223.846558,481.383942 1208.880371,483.384918 
	C1209.488892,488.479309 1210.030640,493.013519 1210.584106,497.646606 
	C1204.934448,498.501678 1199.741089,499.287659 1194.450562,500.088318 
	C1195.645508,509.513153 1196.771484,518.394104 1197.120239,527.304626 
	C1191.644531,528.992188 1195.158569,533.031189 1195.477295,535.550110 
	C1198.756836,561.463806 1202.378906,587.334717 1205.988037,613.205933 
	C1209.274292,636.764404 1211.797852,660.471802 1216.204590,683.821655 
	C1223.185059,720.809326 1249.103516,748.597046 1293.153076,745.991760 
	C1314.436035,744.733032 1333.206177,737.950684 1347.408081,721.288574 
	C1352.633911,715.157471 1357.479004,708.701843 1362.734375,702.096985 
	C1364.119141,711.834045 1365.478638,721.393616 1366.878784,731.239319 
	C1393.301880,727.627136 1419.114136,724.098389 1445.437500,720.499817 
	C1444.169312,711.385620 1442.958130,702.681213 1442.250122,693.324646 
	C1445.960571,693.142456 1445.194946,690.525452 1444.892578,688.299316 
	C1443.101074,675.111328 1441.232300,661.933899 1439.438354,648.746277 
	C1432.262451,595.995422 1425.110718,543.241333 1417.932129,490.490906 
	C1417.001709,483.654510 1415.966309,476.832458 1414.974731,469.971222 
	C1408.748901,470.745026 1403.221924,471.431976 1397.545410,472.137512 
	C1396.827271,467.106598 1396.199219,462.706299 1395.497070,457.787048 
	C1380.456909,459.785919 1365.725342,461.743744 1350.644409,463.748016 
	C1351.204468,468.917023 1351.699585,473.487061 1352.225220,478.338959 
	C1346.869751,479.162323 1341.879883,479.929474 1336.596191,480.741791 
	C1337.765625,490.195740 1338.865234,499.085175 1339.235962,507.995575 
	C1333.911499,509.323944 1337.167236,513.280640 1337.455811,515.561890 
	C1340.786133,541.886047 1344.436890,568.170288 1348.095947,594.452026 
	C1349.277344,602.935669 1350.733521,611.380981 1351.846313,620.684021 
M1439.209961,494.354614 
	C1435.561768,494.701019 1436.870361,497.384949 1437.107300,499.247955 
	C1438.302612,508.652771 1439.678955,518.034424 1440.955688,527.429077 
	C1446.130127,565.505737 1451.287720,603.584717 1456.458252,641.661926 
	C1461.651123,679.905273 1466.845581,718.148376 1472.054443,756.389526 
	C1473.260498,765.244141 1474.528320,774.090393 1475.837402,783.437927 
	C1502.247925,779.851379 1528.189819,776.328552 1554.448120,772.762695 
	C1553.164185,763.449280 1551.961548,754.725403 1551.366943,745.450867 
	C1555.180908,745.249390 1554.141357,742.497437 1553.860962,740.396851 
	C1552.416138,729.569092 1550.755005,718.769531 1549.380859,707.933289 
	C1548.409790,700.275513 1547.775635,692.575012 1547.697632,684.701355 
	C1582.947998,714.272400 1635.792603,707.120544 1665.528198,677.586426 
	C1690.340332,652.942322 1698.795166,622.074646 1697.778931,587.126892 
	C1697.596436,584.143799 1697.035645,581.127686 1697.292236,578.182861 
	C1699.035889,558.163208 1696.764893,538.504028 1690.760010,519.476990 
	C1680.290771,486.304443 1660.805786,460.472504 1627.419556,447.498718 
	C1589.424927,432.734100 1550.252808,443.750092 1526.429810,475.252167 
	C1524.071655,478.370483 1521.879639,481.614532 1519.206543,485.367157 
	C1517.757080,475.204437 1516.428345,465.888062 1515.079590,456.431458 
	C1509.406494,457.093536 1504.354004,457.683197 1499.027954,458.304779 
	C1498.240479,453.484192 1497.530273,449.137329 1496.769897,444.482330 
	C1481.619141,446.488831 1466.985840,448.426788 1451.987671,450.413055 
	C1452.511230,455.296417 1452.997070,459.827240 1453.500854,464.526154 
	C1447.632568,465.444611 1442.282837,466.281860 1436.642944,467.164551 
	C1437.808228,476.529816 1438.914307,485.418854 1439.209961,494.354614 
z"/>
<path fill="#1B66A1" opacity="1.000000" stroke="none" 
	d="
M1029.737183,774.852478 
	C1032.487305,793.612122 1035.302002,812.362610 1037.973755,831.133423 
	C1042.850952,865.398987 1047.645752,899.676270 1052.470947,933.949280 
	C1054.790527,950.425659 1057.017334,966.915955 1059.500244,983.367615 
	C1059.906982,986.062561 1058.749512,986.562012 1055.977661,986.972900 
	C1047.683472,988.137939 1040.165161,989.222351 1032.647217,990.308167 
	C1019.409546,992.220215 1006.176819,994.167175 992.932922,996.035645 
	C980.176086,997.835327 967.402832,999.518921 954.645996,1001.318481 
	C941.401611,1003.186890 928.173035,1005.167175 914.928711,1007.035828 
	C902.172241,1008.835571 889.399414,1010.519897 876.642883,1012.319519 
	C863.399048,1014.187927 850.170776,1016.167542 836.926941,1018.035950 
	C824.170776,1019.835510 811.398438,1021.520325 798.642273,1023.319824 
	C785.397034,1025.188354 772.167358,1027.167236 758.922180,1029.036133 
	C746.166016,1030.835938 733.393860,1032.522339 720.637695,1034.321777 
	C707.393677,1036.190186 694.165161,1038.167603 680.921143,1040.035889 
	C668.165283,1041.835449 655.393494,1043.522339 642.637573,1045.321655 
	C629.390991,1047.190430 616.159607,1049.167358 602.913025,1051.036377 
	C590.157654,1052.836182 577.386597,1054.524780 564.631165,1056.324219 
	C551.387390,1058.192749 538.155090,1060.142456 524.915894,1062.043457 
	C511.839783,1063.920898 498.762726,1065.791748 485.683533,1067.647583 
	C472.924683,1069.457886 460.162323,1071.243774 447.401947,1073.043335 
	C434.160706,1074.910889 420.920319,1076.784180 407.679016,1078.651489 
	C394.919678,1080.450928 382.183197,1082.442749 369.391327,1083.970337 
	C361.400726,1084.924805 361.069153,1084.657471 359.755585,1076.620239 
	C357.598633,1063.423096 355.833191,1050.161133 353.964111,1036.917847 
	C352.163544,1024.160034 350.480682,1011.385742 348.673615,998.628967 
	C346.473816,983.099976 344.158966,967.587280 341.967682,952.057129 
	C340.167358,939.297791 338.521851,926.516724 336.721558,913.757446 
	C334.853485,900.517517 332.867615,887.294312 330.959534,874.059937 
	C329.074341,860.984253 327.230011,847.902588 325.353180,834.825684 
	C323.241638,820.113342 321.015167,805.415771 319.151276,790.672302 
	C318.972107,789.255249 320.762543,786.429565 322.044159,786.155762 
	C361.244080,777.780884 386.745209,753.524231 402.280853,717.543457 
	C403.558350,714.584839 404.938721,711.670654 406.541168,708.141296 
	C407.132751,711.905090 407.550629,714.836792 408.058777,717.752869 
	C411.425751,737.074280 418.945496,754.293152 433.926178,767.531006 
	C456.709015,787.663147 483.766205,790.964172 512.346252,786.205688 
	C536.953918,782.108582 554.088562,766.275513 569.309937,747.986206 
	C569.762695,750.600159 569.976257,752.862305 570.139038,755.582275 
	C570.088318,764.605225 570.088318,773.170410 570.088318,781.711670 
	C600.405945,781.711670 629.909119,781.711670 659.804321,781.711670 
	C659.804321,772.618652 659.804321,763.854736 659.936157,754.632446 
	C660.086487,669.523010 660.105530,584.871826 660.111450,500.220703 
	C660.111511,499.600891 659.931396,498.981049 659.768616,497.929718 
	C654.678528,497.929718 649.758240,497.929718 644.277527,497.929718 
	C644.277527,491.418365 644.277527,485.358704 644.277527,479.221130 
	C624.968567,479.221130 606.236877,479.221130 586.954041,479.221130 
	C586.954041,485.583618 586.954041,491.645844 586.954041,498.129730 
	C580.985474,498.129730 575.561218,498.129730 569.772217,498.129730 
	C569.772217,500.535034 569.772217,502.503510 569.772217,504.471954 
	C569.772217,548.297607 569.837402,592.123535 569.691345,635.948730 
	C569.672668,641.561340 569.030396,647.272156 567.856262,652.761902 
	C564.330872,669.243958 550.748291,679.881897 533.280823,680.338989 
	C516.095947,680.788574 503.424103,671.841858 498.885132,655.129822 
	C497.164703,648.795410 496.426239,642.013794 496.394348,635.430359 
	C496.181885,591.606995 496.282135,547.782043 496.280731,503.957642 
	C496.280670,502.050476 496.280731,500.143280 496.280731,497.795837 
	C490.250305,497.795837 484.995087,497.795837 479.175171,497.795837 
	C479.175171,491.308289 479.175171,485.259705 479.175171,479.276123 
	C459.857178,479.276123 441.131042,479.276123 421.852386,479.276123 
	C421.852386,485.695740 421.852386,491.761566 421.852386,498.253357 
	C416.214447,498.253357 411.131714,498.253357 405.861481,498.253357 
	C405.861481,503.205261 405.878815,507.696320 405.858429,512.187195 
	C405.772308,531.176819 405.674927,550.166504 405.429901,568.848511 
	C404.206116,566.115662 403.125244,563.694397 402.063477,561.264648 
	C393.552979,541.790222 381.107605,525.360596 363.801453,512.919861 
	C338.601013,494.804199 310.588287,488.790649 279.768219,494.213196 
	C278.636749,492.525085 277.349152,490.969452 277.063141,489.247528 
	C275.677582,480.905457 274.527863,472.523285 273.356171,464.146759 
	C271.199097,448.725830 269.133148,433.292084 266.939789,417.876373 
	C264.699310,402.129395 262.351440,386.397705 260.050598,370.659302 
	C259.176117,363.723480 258.301605,356.787659 258.016663,349.427795 
	C271.212433,347.313995 283.824768,345.668549 296.423035,343.921722 
	C308.366577,342.265656 320.294312,340.495483 332.231018,338.789795 
	C348.086975,336.524170 363.942169,334.252655 379.802917,332.021027 
	C392.723816,330.203033 405.656281,328.467010 418.576599,326.644958 
	C431.658722,324.800049 444.728394,322.867371 457.810516,321.022430 
	C470.732086,319.200165 483.666992,317.472321 496.587585,315.643372 
	C511.957794,313.467712 527.314331,311.195557 542.685486,309.026794 
	C555.607727,307.203583 568.548706,305.512970 581.469910,303.683105 
	C596.839661,301.506500 612.194763,299.226532 627.560852,297.023712 
	C640.800537,295.125824 654.046692,293.273010 667.290039,291.400787 
	C682.337036,289.273590 697.381714,287.129089 712.432007,285.025482 
	C725.517273,283.196533 738.614441,281.452881 751.696350,279.600861 
	C766.903503,277.447968 782.094055,275.178864 797.302246,273.033508 
	C810.386841,271.187744 823.492004,269.488525 836.577026,267.645477 
	C851.947693,265.480530 867.305176,263.221680 882.670654,261.019653 
	C895.911682,259.122040 909.149109,257.196381 922.401062,255.377838 
	C933.527466,253.850983 944.672546,252.460770 955.809387,251.010071 
	C958.198730,267.113495 960.669617,283.205383 962.960876,299.322754 
	C967.849609,333.710968 972.652222,368.111450 977.476685,402.508789 
	C981.654602,432.296936 985.813721,462.087738 989.545410,492.323730 
	C966.174133,490.563324 944.772034,495.441986 925.141296,507.360901 
	C897.888123,523.907837 881.713989,548.763123 872.479736,578.483154 
	C872.160889,576.179749 872.008850,574.191406 872.008362,572.203125 
	C871.996155,519.599426 871.999512,466.995697 872.000183,414.391968 
	C872.000244,412.450897 872.000183,410.509857 872.000183,407.960083 
	C865.914246,407.960083 860.464966,407.960083 855.009949,407.494720 
	C854.994080,401.362946 854.983948,395.696533 854.707275,389.705658 
	C836.159851,389.276093 817.878906,389.162720 799.597839,389.104523 
	C799.031677,389.102722 798.463684,389.672791 797.607910,390.279510 
	C797.319397,396.182892 797.319397,401.783051 797.319397,408.130920 
	C791.368713,408.130920 786.336304,408.130920 781.022156,408.130920 
	C781.022156,524.323975 781.022156,639.756287 781.046997,755.640808 
	C781.075867,762.914551 781.347717,769.750366 780.987854,776.552734 
	C780.755493,780.945007 782.074341,782.191589 786.527893,782.156250 
	C813.148926,781.944885 839.772522,782.057373 866.395264,782.037537 
	C868.135620,782.036255 869.875854,781.837708 871.977295,781.708618 
	C871.977295,772.460693 871.977295,763.824158 871.988525,754.707397 
	C872.053162,736.134155 872.106445,718.041260 872.406555,700.221008 
	C881.652710,731.436951 898.108643,757.019409 926.468445,773.568787 
	C949.384216,786.941284 974.066406,790.857178 1000.282654,786.248718 
	C1010.969910,784.370056 1020.402222,779.893127 1029.737183,774.852478 
M766.607971,474.659912 
	C766.741211,453.152069 766.886414,431.644226 766.924561,410.136200 
	C766.925354,409.691681 765.684265,409.244934 764.097168,408.957001 
	C759.506531,408.957001 754.915955,408.957001 749.675171,408.957001 
	C749.675171,401.961487 749.675171,395.594513 749.675171,389.265869 
	C730.266846,389.265869 711.523560,389.265869 692.164551,389.265869 
	C692.164551,395.551880 692.164551,401.599182 692.164551,408.175110 
	C686.496948,408.175110 681.431702,408.175110 676.144714,408.175110 
	C676.144714,430.484589 676.144714,452.244629 676.032288,474.483490 
	C676.032288,474.483490 676.074524,474.973999 676.026184,475.913361 
	C676.053650,483.288147 676.081116,490.662964 676.022034,498.966675 
	C676.014404,583.146851 676.006042,667.327087 676.005798,751.507263 
	C676.005798,752.668945 676.108032,753.830627 676.041565,755.920227 
	C676.041565,764.499756 676.041565,773.079224 676.041565,781.762024 
	C706.323120,781.762024 735.848755,781.762024 765.846313,781.762024 
	C765.846313,772.692322 765.846313,763.926270 766.391052,754.511658 
	C766.488586,753.189697 766.671143,751.867798 766.671387,750.545837 
	C766.684875,667.901123 766.688049,585.256470 766.649902,502.611816 
	C766.649109,501.017548 766.144043,499.423553 765.940735,496.919556 
	C765.970398,489.725159 766.000061,482.530731 766.607971,474.659912 
M754.589417,956.684448 
	C774.355530,941.107971 789.657227,921.823730 801.728394,899.866272 
	C802.024780,899.327148 801.966553,898.593079 802.613586,897.546692 
	C816.504639,871.354797 824.623169,843.674805 825.027100,814.683594 
	C812.678223,821.950806 800.945801,829.880859 788.354919,836.062195 
	C757.302612,851.306702 724.728638,862.541321 691.065857,870.591858 
	C672.497681,875.032471 653.785583,878.944824 634.616638,877.826721 
	C619.786621,876.961670 604.964600,875.191101 590.269104,872.964661 
	C567.417969,869.502502 544.698730,865.178589 521.878662,861.497986 
	C513.361816,860.124390 504.719147,859.531189 495.305084,858.490540 
	C499.550690,862.524902 503.319916,865.355347 506.146545,868.930908 
	C515.305908,880.517029 524.136292,892.363708 533.062561,904.133484 
	C549.868713,926.293701 567.533997,947.681152 590.083252,964.344788 
	C596.132202,968.814880 603.028931,972.137634 609.626953,976.750671 
	C610.080200,977.199036 610.459229,977.784485 610.997559,978.075806 
	C626.289001,986.351013 642.623718,991.335388 659.989075,991.783630 
	C692.738037,992.628906 721.330750,980.690186 747.973877,961.850647 
	C749.957642,960.138489 751.941345,958.426331 754.589417,956.684448 
z"/>
<path fill="#EB842D" opacity="1.000000" stroke="none" 
	d="
M872.717041,578.798279 
	C881.713989,548.763123 897.888123,523.907837 925.141296,507.360901 
	C944.772034,495.441986 966.174133,490.563324 989.520264,492.730835 
	C1017.822754,494.168427 1038.782593,508.897186 1057.801270,529.050049 
	C1057.801270,488.289032 1057.801270,448.564941 1057.801270,408.303223 
	C1063.531982,408.303223 1068.939575,408.303223 1074.822266,408.303223 
	C1074.822266,401.860565 1074.822266,395.940826 1074.822266,389.690155 
	C1094.042603,389.690155 1112.779541,389.690155 1132.176758,389.690155 
	C1132.176758,395.648346 1132.176758,401.524353 1132.176758,407.922852 
	C1137.887329,407.922852 1142.962158,407.922852 1148.280396,407.922852 
	C1148.430786,409.723267 1148.632202,411.009491 1148.632324,412.295715 
	C1148.646606,525.406433 1148.645386,638.517151 1148.640137,751.627869 
	C1148.640137,752.459290 1148.570435,753.290649 1147.968994,754.561646 
	C1117.690918,755.002808 1087.976929,755.004333 1058.263062,755.005859 
	C1058.102417,753.372375 1057.941772,751.738831 1057.810303,749.370178 
	C1057.839355,739.932434 1057.839355,731.229858 1057.839355,721.726868 
	C1056.002563,723.697571 1054.780029,725.007507 1053.559326,726.319275 
	C1035.968384,745.223938 1015.904175,759.069397 988.873718,760.549744 
	C966.669373,761.765808 945.893921,757.655762 926.706177,746.513733 
	C898.471008,730.117981 882.011536,704.707336 872.287048,673.820068 
	C867.869507,656.930725 865.460999,640.125793 866.358948,623.159302 
	C867.066223,609.795166 869.440430,596.519287 871.316162,582.962585 
	C871.944458,581.413452 872.330750,580.105835 872.717041,578.798279 
M1025.895264,556.531616 
	C994.420532,547.989746 965.558289,560.309937 951.172302,589.590210 
	C939.167969,614.022888 939.652771,639.105652 951.869019,663.384766 
	C962.808228,685.125916 980.685608,697.342957 1005.415894,697.937012 
	C1031.739624,698.569458 1050.941528,686.523010 1063.152710,663.470886 
	C1072.664429,645.514832 1073.842163,626.130188 1069.735596,606.746765 
	C1064.609253,582.549561 1050.651123,565.147217 1025.895264,556.531616 
z"/>
<path fill="#E74D3B" opacity="1.000000" stroke="none" 
	d="
M280.073700,494.269012 
	C310.588287,488.790649 338.601013,494.804199 363.801453,512.919861 
	C381.107605,525.360596 393.552979,541.790222 402.063477,561.264648 
	C403.125244,563.694397 404.206116,566.115662 405.526245,569.287964 
	C405.797821,590.940918 405.737457,611.847412 405.871277,632.752625 
	C405.978333,649.479675 406.321411,666.205200 406.281494,683.113281 
	C405.014343,685.352112 403.915863,687.364197 403.052643,689.472656 
	C384.254944,735.388245 341.275299,765.819763 289.388489,760.064758 
	C268.582458,757.757080 250.256653,750.205017 235.007782,735.699707 
	C231.461945,732.326843 228.174606,728.682251 223.709641,724.068726 
	C223.709641,734.456665 223.709641,743.225586 223.709641,751.994507 
	C223.538330,752.778870 223.367035,753.563171 222.639603,754.662170 
	C192.412506,754.971497 162.741547,754.966187 133.070572,754.960876 
	C132.982178,753.302795 132.816605,751.644653 132.816422,749.986572 
	C132.804260,637.889038 132.805405,525.791565 132.805420,413.694061 
	C132.805420,412.046783 132.805405,410.399536 132.805405,408.297119 
	C137.876022,408.297119 142.630127,408.297119 147.951111,408.297119 
	C147.951111,401.976807 147.951111,396.080872 147.951111,389.762268 
	C167.381683,389.762268 186.247726,389.762268 205.689774,389.762268 
	C205.689774,395.755127 205.689774,401.651672 205.689774,407.964600 
	C211.672791,407.964600 217.103912,407.964600 222.964417,407.964600 
	C222.964417,449.058136 222.964417,489.720337 222.964417,530.382568 
	C237.387802,514.980103 252.970367,501.908691 274.139282,495.707092 
	C276.571777,495.051117 278.322754,494.660065 280.073700,494.269012 
M321.081116,673.581909 
	C339.057983,647.969238 340.543243,620.272339 329.109741,592.207153 
	C319.968811,569.769409 302.097382,556.569153 277.717865,554.233032 
	C252.485748,551.815247 232.601852,561.902893 218.914673,583.262329 
	C205.826202,603.687317 204.014954,626.120667 210.277283,648.916504 
	C216.983459,673.328064 232.116501,690.990417 257.596588,696.564941 
	C282.733704,702.064514 304.162903,694.327026 321.081116,673.581909 
z"/>
<path fill="#1B66A1" opacity="1.000000" stroke="none" 
	d="
M1546.991211,684.893616 
	C1547.775635,692.575012 1548.409790,700.275513 1549.380859,707.933289 
	C1550.755005,718.769531 1552.416138,729.569092 1553.860962,740.396851 
	C1554.141357,742.497437 1555.180908,745.249390 1550.643555,745.752563 
	C1543.683105,746.774231 1537.428955,747.370422 1531.212402,748.237671 
	C1513.551270,750.701599 1495.911865,753.324158 1478.236206,755.674561 
	C1477.287842,755.800659 1475.285400,754.128601 1475.122681,753.083557 
	C1473.572266,743.126770 1472.289429,733.127686 1470.976807,723.134583 
	C1469.212158,709.699341 1467.545410,696.250977 1465.732300,682.822327 
	C1463.876099,669.073608 1461.884888,655.343201 1459.969849,641.602295 
	C1458.397461,630.320007 1456.845947,619.034790 1455.292847,607.749817 
	C1453.513672,594.822693 1451.728638,581.896423 1449.972290,568.966125 
	C1448.060303,554.889771 1446.165405,540.811096 1444.286987,526.730164 
	C1442.845703,515.925293 1441.441162,505.115509 1440.020264,494.307892 
	C1438.914307,485.418854 1437.808228,476.529816 1436.642944,467.164551 
	C1442.282837,466.281860 1447.632568,465.444611 1453.500854,464.526154 
	C1452.997070,459.827240 1452.511230,455.296417 1451.987671,450.413055 
	C1466.985840,448.426788 1481.619141,446.488831 1496.769897,444.482330 
	C1497.530273,449.137329 1498.240479,453.484192 1499.027954,458.304779 
	C1504.354004,457.683197 1509.406494,457.093536 1515.079590,456.431458 
	C1516.428345,465.888062 1517.757080,475.204437 1519.206543,485.367157 
	C1521.879639,481.614532 1524.071655,478.370483 1526.429810,475.252167 
	C1550.252808,443.750092 1589.424927,432.734100 1627.419556,447.498718 
	C1660.805786,460.472504 1680.290771,486.304443 1690.760010,519.476990 
	C1696.764893,538.504028 1699.035889,558.163208 1697.292236,578.182861 
	C1697.035645,581.127686 1697.596436,584.143799 1697.366455,587.706909 
	C1695.635620,593.342468 1694.434082,598.431885 1692.978638,603.447632 
	C1686.744141,624.933594 1675.618286,643.244019 1657.635376,656.950500 
	C1643.873779,667.439453 1628.396606,673.394531 1611.099121,675.357422 
	C1593.740723,677.327271 1577.347046,674.904236 1562.049561,666.623840 
	C1555.376831,663.012024 1549.330688,658.242798 1542.939087,653.835449 
	C1542.769409,653.623352 1542.660645,653.575012 1542.551880,653.526733 
	C1542.701294,653.684753 1542.850586,653.842712 1542.971436,654.449036 
	C1543.976074,664.574097 1545.009399,674.250732 1546.097656,684.252930 
	C1546.463501,684.711365 1546.774414,684.844360 1547.041260,684.979675 
	C1546.996948,684.981995 1546.991211,684.893616 1546.991211,684.893616 
M1529.946411,571.942139 
	C1529.916016,572.602966 1529.745117,573.293030 1529.875366,573.920532 
	C1535.973511,603.280212 1565.347046,623.093445 1595.472900,607.911316 
	C1608.231934,601.481201 1616.468018,590.879700 1618.679199,575.490173 
	C1620.817017,566.902283 1619.433350,558.410095 1617.931519,549.934937 
	C1613.463501,524.718018 1590.879395,507.487457 1566.648926,511.130280 
	C1536.093750,515.723938 1523.144653,547.747620 1529.946411,571.942139 
z"/>
<path fill="#1B66A1" opacity="1.000000" stroke="none" 
	d="
M1339.964844,507.974609 
	C1338.865234,499.085175 1337.765625,490.195740 1336.596191,480.741791 
	C1341.879883,479.929474 1346.869751,479.162323 1352.225220,478.338959 
	C1351.699585,473.487061 1351.204468,468.917023 1350.644409,463.748016 
	C1365.725342,461.743744 1380.456909,459.785919 1395.497070,457.787048 
	C1396.199219,462.706299 1396.827271,467.106598 1397.545410,472.137512 
	C1403.221924,471.431976 1408.748901,470.745026 1414.974731,469.971222 
	C1415.966309,476.832458 1417.001709,483.654510 1417.932129,490.490906 
	C1425.110718,543.241333 1432.262451,595.995422 1439.438354,648.746277 
	C1441.232300,661.933899 1443.101074,675.111328 1444.892578,688.299316 
	C1445.194946,690.525452 1445.960571,693.142456 1441.568359,693.678345 
	C1428.936523,695.544678 1416.982178,697.025269 1405.037354,698.578857 
	C1392.319336,700.232910 1379.610229,701.956055 1366.527466,703.698303 
	C1365.157471,693.740540 1363.859131,684.302734 1362.560425,674.863586 
	C1358.464844,680.115356 1354.606567,685.073486 1350.737061,690.022949 
	C1330.871460,715.433411 1303.632812,721.964233 1273.734619,717.419556 
	C1243.674683,712.850403 1226.118408,692.827637 1218.036987,664.366455 
	C1215.165161,654.252502 1213.753784,643.697449 1212.071045,633.279968 
	C1210.439819,623.180725 1209.321167,612.998901 1207.968384,602.854553 
	C1206.463379,591.568481 1204.942017,580.284546 1203.438477,568.998291 
	C1201.585571,555.091309 1199.743896,541.182861 1197.897461,527.275024 
	C1196.771484,518.394104 1195.645508,509.513153 1194.450562,500.088318 
	C1199.741089,499.287659 1204.934448,498.501678 1210.584106,497.646606 
	C1210.030640,493.013519 1209.488892,488.479309 1208.880371,483.384918 
	C1223.846558,481.383942 1238.586060,479.413269 1253.756104,477.385040 
	C1254.504639,482.118317 1255.216431,486.619446 1255.985229,491.481140 
	C1261.726685,490.768677 1266.970215,490.117981 1272.888306,489.383606 
	C1274.227173,498.817535 1275.607178,508.287201 1276.909912,517.767395 
	C1281.278931,549.557129 1285.417969,581.380310 1290.067627,613.128723 
	C1292.049072,626.658752 1297.870117,638.003662 1312.253906,642.294922 
	C1329.539307,647.451843 1347.881836,637.336426 1351.916016,619.959534 
	C1352.317017,617.486267 1353.024536,615.713989 1352.917114,613.992615 
	C1352.331055,604.609131 1351.961792,595.183777 1350.746948,585.873413 
	C1347.355713,559.880676 1343.585449,533.937439 1339.964844,507.974609 
z"/>
<path fill="#1C70AD" opacity="1.000000" stroke="none" 
	d="
M955.762329,250.679733 
	C944.672546,252.460770 933.527466,253.850983 922.401062,255.377838 
	C909.149109,257.196381 895.911682,259.122040 882.670654,261.019653 
	C867.305176,263.221680 851.947693,265.480530 836.577026,267.645477 
	C823.492004,269.488525 810.386841,271.187744 797.302246,273.033508 
	C782.094055,275.178864 766.903503,277.447968 751.696350,279.600861 
	C738.614441,281.452881 725.517273,283.196533 712.432007,285.025482 
	C697.381714,287.129089 682.337036,289.273590 667.290039,291.400787 
	C654.046692,293.273010 640.800537,295.125824 627.560852,297.023712 
	C612.194763,299.226532 596.839661,301.506500 581.469910,303.683105 
	C568.548706,305.512970 555.607727,307.203583 542.685486,309.026794 
	C527.314331,311.195557 511.957794,313.467712 496.587585,315.643372 
	C483.666992,317.472321 470.732086,319.200165 457.810516,321.022430 
	C444.728394,322.867371 431.658722,324.800049 418.576599,326.644958 
	C405.656281,328.467010 392.723816,330.203033 379.802917,332.021027 
	C363.942169,334.252655 348.086975,336.524170 332.231018,338.789795 
	C320.294312,340.495483 308.366577,342.265656 296.423035,343.921722 
	C283.824768,345.668549 271.212433,347.313995 258.154663,348.987183 
	C260.932556,340.469208 264.054901,331.923615 267.521423,323.519989 
	C267.975739,322.418610 270.131775,321.609467 271.604645,321.398712 
	C298.572693,317.539795 325.562225,313.831329 352.536194,310.013336 
	C391.014587,304.566925 429.484100,299.057709 468.641663,293.251343 
	C473.160400,293.011108 471.900848,290.526245 471.610474,288.467010 
	C470.066071,277.514099 468.632477,266.544769 466.993042,255.606247 
	C465.801971,247.659271 464.350922,239.751282 463.015747,231.825912 
	C462.151398,223.866699 461.287079,215.907501 460.894531,207.494095 
	C464.336548,207.245605 467.334320,207.818466 470.272400,207.597412 
	C489.242462,206.170151 508.230835,204.875977 527.151917,202.939545 
	C546.045471,201.005920 564.907349,198.653366 583.710999,195.977829 
	C610.036804,192.231934 636.404114,188.607452 662.548523,183.812271 
	C682.836792,180.091156 702.810974,174.657593 722.924805,169.985199 
	C724.947021,183.461990 727.019958,196.931427 728.977905,210.417557 
	C731.150391,225.381561 733.217896,240.360809 735.412720,255.912003 
	C743.552795,254.811340 751.541443,253.772552 759.517639,252.645523 
	C793.929932,247.783051 828.338562,242.895004 862.748474,238.015747 
	C883.165222,235.120697 903.593262,232.300980 923.988708,229.262589 
	C927.917053,228.677368 930.875732,229.373123 933.925049,232.088348 
	C940.999512,238.387589 948.429504,244.287567 955.762329,250.679733 
z"/>
<path fill="#142C4F" opacity="1.000000" stroke="none" 
	d="
M223.855804,752.318054 
	C223.709641,743.225586 223.709641,734.456665 223.709641,724.068726 
	C228.174606,728.682251 231.461945,732.326843 235.007782,735.699707 
	C250.256653,750.205017 268.582458,757.757080 289.388489,760.064758 
	C341.275299,765.819763 384.254944,735.388245 403.052643,689.472656 
	C403.915863,687.364197 405.014343,685.352112 406.369263,683.562988 
	C407.166168,686.778015 407.471130,689.749939 408.048004,692.668152 
	C412.324432,714.301147 422.175812,732.598328 440.358704,745.732666 
	C453.663757,755.343506 468.904510,759.398499 485.035400,760.510254 
	C506.113617,761.963074 526.184509,758.928467 543.240112,745.342957 
	C552.248840,738.167053 560.588257,730.150879 569.070679,722.654846 
	C569.070679,730.506409 569.070679,739.070374 569.070679,747.634338 
	C554.088562,766.275513 536.953918,782.108582 512.346252,786.205688 
	C483.766205,790.964172 456.709015,787.663147 433.926178,767.531006 
	C418.945496,754.293152 411.425751,737.074280 408.058777,717.752869 
	C407.550629,714.836792 407.132751,711.905090 406.541168,708.141296 
	C404.938721,711.670654 403.558350,714.584839 402.280853,717.543457 
	C386.745209,753.524231 361.244080,777.780884 322.044159,786.155762 
	C320.762543,786.429565 318.972107,789.255249 319.151276,790.672302 
	C321.015167,805.415771 323.241638,820.113342 325.353180,834.825684 
	C327.230011,847.902588 329.074341,860.984253 330.959534,874.059937 
	C332.867615,887.294312 334.853485,900.517517 336.721558,913.757446 
	C338.521851,926.516724 340.167358,939.297791 341.967682,952.057129 
	C344.158966,967.587280 346.473816,983.099976 348.673615,998.628967 
	C350.480682,1011.385742 352.163544,1024.160034 353.964111,1036.917847 
	C355.833191,1050.161133 357.598633,1063.423096 359.755585,1076.620239 
	C361.069153,1084.657471 361.400726,1084.924805 369.391327,1083.970337 
	C382.183197,1082.442749 394.919678,1080.450928 407.679016,1078.651489 
	C420.920319,1076.784180 434.160706,1074.910889 447.401947,1073.043335 
	C460.162323,1071.243774 472.924683,1069.457886 485.683533,1067.647583 
	C498.762726,1065.791748 511.839783,1063.920898 524.915894,1062.043457 
	C538.155090,1060.142456 551.387390,1058.192749 564.631165,1056.324219 
	C577.386597,1054.524780 590.157654,1052.836182 602.913025,1051.036377 
	C616.159607,1049.167358 629.390991,1047.190430 642.637573,1045.321655 
	C655.393494,1043.522339 668.165283,1041.835449 680.921143,1040.035889 
	C694.165161,1038.167603 707.393677,1036.190186 720.637695,1034.321777 
	C733.393860,1032.522339 746.166016,1030.835938 758.922180,1029.036133 
	C772.167358,1027.167236 785.397034,1025.188354 798.642273,1023.319824 
	C811.398438,1021.520325 824.170776,1019.835510 836.926941,1018.035950 
	C850.170776,1016.167542 863.399048,1014.187927 876.642883,1012.319519 
	C889.399414,1010.519897 902.172241,1008.835571 914.928711,1007.035828 
	C928.173035,1005.167175 941.401611,1003.186890 954.645996,1001.318481 
	C967.402832,999.518921 980.176086,997.835327 992.932922,996.035645 
	C1006.176819,994.167175 1019.409546,992.220215 1032.647217,990.308167 
	C1040.165161,989.222351 1047.683472,988.137939 1055.616943,987.054077 
	C1057.276733,995.784912 1058.521118,1004.514587 1059.878418,1014.035645 
	C827.127441,1046.876587 594.402527,1079.713867 361.033112,1112.642090 
	C345.742615,1004.327637 330.491760,896.293945 315.251221,788.333374 
	C310.171265,788.333374 305.386047,788.340088 300.600830,788.332336 
	C271.733307,788.285400 247.438675,777.839783 227.955612,756.417175 
	C226.732574,755.072388 225.324127,753.896240 223.855804,752.318054 
z"/>
<path fill="#1B66A1" opacity="1.000000" stroke="none" 
	d="
M1668.852173,893.781311 
	C1668.561157,895.486572 1668.023560,897.190796 1668.016846,898.897156 
	C1667.949463,916.253296 1667.968750,933.609863 1667.437622,951.437744 
	C1654.010742,951.912659 1641.109985,951.916077 1628.208984,951.919556 
	C1628.146362,935.937378 1628.044189,919.955322 1628.029419,903.973083 
	C1628.000854,872.998657 1628.021118,842.024170 1628.021118,811.049744 
	C1628.021118,809.242432 1628.021240,807.435120 1628.021240,804.998840 
	C1637.727417,804.998840 1647.250488,805.848694 1656.552368,804.777344 
	C1667.455444,803.521545 1673.544312,807.518311 1678.668213,817.091309 
	C1686.728271,832.150208 1696.389526,846.351990 1705.701782,861.449951 
	C1706.938965,859.569824 1707.957275,858.104065 1708.893066,856.587280 
	C1718.672729,840.733948 1728.501343,824.910095 1738.152222,808.978455 
	C1739.872925,806.137939 1741.653564,804.827271 1745.179810,804.898743 
	C1757.788452,805.154419 1770.405396,804.998840 1783.388672,804.998840 
	C1783.388672,853.956055 1783.388672,902.381470 1782.789062,951.324829 
	C1769.223755,951.876831 1756.258179,951.910828 1743.292725,951.944885 
	C1743.212769,932.730957 1743.132812,913.516968 1742.993164,893.374268 
	C1742.933472,884.909973 1742.933472,877.374512 1742.933472,869.838989 
	C1742.624756,869.771973 1742.316162,869.704956 1742.007446,869.637939 
	C1729.987915,888.049377 1717.968262,906.460815 1705.521973,925.525879 
	C1692.979614,906.435608 1680.873779,888.009705 1668.767822,869.583801 
	C1668.387329,869.725403 1668.006836,869.867065 1667.626343,870.008728 
	C1668.034912,877.932922 1668.443604,885.857117 1668.852173,893.781311 
z"/>
<path fill="#1B6199" opacity="1.000000" stroke="none" 
	d="
M1074.910645,863.833496 
	C1074.424072,858.230164 1073.215332,852.579468 1073.578979,847.031921 
	C1074.972778,825.767761 1087.298462,810.504028 1108.839722,805.329041 
	C1136.243042,798.745789 1162.309082,802.724487 1185.981934,818.847900 
	C1187.331299,819.766907 1188.557495,820.867065 1190.118530,822.102600 
	C1186.221069,827.664429 1182.444580,833.053528 1178.557617,838.600342 
	C1182.526001,841.390320 1186.284180,844.032532 1190.373535,846.907532 
	C1184.556274,855.209045 1178.965454,863.187378 1173.362671,871.182739 
	C1192.479980,882.337769 1197.042603,899.010559 1192.512451,919.931152 
	C1188.103149,934.820190 1178.228760,943.820496 1164.938354,948.829346 
	C1141.559814,957.640076 1118.183960,955.196716 1095.142822,947.032898 
	C1089.563599,945.056152 1084.236694,942.367615 1078.793701,940.006348 
	C1076.436523,937.886414 1074.097412,935.745911 1071.715820,933.653809 
	C1070.129395,932.260193 1068.482300,930.935486 1066.673950,929.422302 
	C1073.562012,921.012634 1080.233276,912.867493 1087.218018,904.232544 
	C1089.523071,901.157043 1091.134766,903.315674 1092.494263,904.372131 
	C1101.992676,911.753052 1112.711670,916.744690 1124.489502,918.385559 
	C1131.733643,919.394775 1139.318970,918.469849 1146.695801,917.803040 
	C1150.604980,917.449768 1153.115967,914.019531 1152.665894,910.388000 
	C1152.309570,907.513123 1150.362549,904.112000 1148.047241,902.385254 
	C1145.114258,900.197632 1141.170898,899.193420 1137.526245,898.163818 
	C1127.510010,895.334595 1117.359009,892.973328 1107.377808,890.031555 
	C1093.011230,885.797058 1081.041260,878.377502 1074.910645,863.833496 
z"/>
<path fill="#1A66A0" opacity="1.000000" stroke="none" 
	d="
M1441.867188,916.089294 
	C1444.406128,916.456848 1446.944946,916.824402 1450.187012,917.293762 
	C1450.187012,928.309509 1450.187012,939.615723 1449.619873,951.409302 
	C1410.072632,951.881958 1371.092529,951.867188 1332.112427,951.852417 
	C1332.038208,924.538940 1331.944824,897.225586 1331.896362,869.912048 
	C1331.861450,850.255371 1331.886353,830.598572 1331.884766,810.941833 
	C1331.884644,809.139893 1331.884888,807.337891 1331.884888,805.275269 
	C1371.010742,805.275269 1409.746460,805.275269 1449.109985,805.275269 
	C1449.109985,816.213379 1449.109985,827.134888 1448.564941,838.524414 
	C1424.550903,838.993408 1401.082031,838.970093 1377.613403,839.042053 
	C1375.738770,839.047791 1373.866089,839.711121 1371.992188,840.031616 
	C1371.991699,839.994446 1372.066040,839.990479 1371.752686,840.272461 
	C1371.646606,847.373962 1371.854004,854.193604 1372.025024,861.010803 
	C1371.988647,861.008423 1371.988647,860.935486 1372.265137,861.255493 
	C1374.015869,861.716980 1375.490234,861.980103 1376.964722,861.981628 
	C1398.603882,862.003479 1420.243042,861.990601 1441.935303,862.393311 
	C1442.029541,863.346802 1442.070557,863.892761 1442.111572,864.438782 
	C1442.059082,873.639771 1442.006470,882.840820 1441.427490,892.511169 
	C1419.801392,892.985352 1398.701660,892.963196 1377.602173,893.041687 
	C1375.731201,893.048645 1373.862671,893.710876 1371.992554,894.031738 
	C1371.992188,893.994751 1372.066040,893.990906 1371.752808,894.272705 
	C1371.303345,901.555420 1371.161255,908.556213 1371.074707,915.557678 
	C1371.072998,915.688965 1371.730103,915.828430 1372.541992,916.004272 
	C1395.958618,916.059448 1418.912842,916.074402 1441.867188,916.089294 
z"/>
<path fill="#1B67A1" opacity="1.000000" stroke="none" 
	d="
M1467.421387,951.946716 
	C1464.371460,951.530334 1461.321533,951.113892 1457.681274,950.616882 
	C1458.192505,949.167053 1458.634155,947.665955 1459.239502,946.234009 
	C1478.700806,900.190613 1498.208374,854.166809 1517.581665,808.086487 
	C1518.841064,805.090637 1520.150269,803.765625 1523.637695,803.859863 
	C1534.117188,804.143005 1544.611450,803.853333 1555.093750,804.081299 
	C1556.625854,804.114624 1558.961304,805.393494 1559.515503,806.695862 
	C1579.740723,854.219971 1599.799683,901.814819 1619.865967,949.406494 
	C1619.982910,949.683838 1619.880615,950.053589 1619.880615,950.887390 
	C1616.881714,951.034058 1613.832153,951.183228 1609.967773,951.592896 
	C1599.995239,951.872192 1590.835205,951.775879 1581.681152,951.969421 
	C1578.278076,952.041382 1576.476929,950.590271 1575.314453,947.599365 
	C1572.911377,941.417053 1570.255859,935.331177 1567.933716,929.119812 
	C1566.862671,926.255188 1565.387573,924.946228 1562.122070,924.978149 
	C1546.139404,925.134766 1530.153320,925.142639 1514.171143,924.960083 
	C1511.231812,924.926514 1510.069092,926.110107 1509.152466,928.541077 
	C1506.813354,934.745483 1504.235474,940.859985 1501.913696,947.070496 
	C1500.658691,950.427368 1498.756714,952.088684 1494.891968,951.989319 
	C1485.740723,951.753906 1476.578979,951.934326 1467.421387,951.946716 
M1522.458618,892.519958 
	C1522.622070,892.935974 1522.782471,893.714905 1522.949097,893.716187 
	C1533.218506,893.799561 1543.488403,893.824524 1553.757935,893.769470 
	C1553.860474,893.768921 1553.957031,892.632263 1553.731689,891.370667 
	C1548.747803,878.841064 1543.764038,866.311401 1538.611206,853.356873 
	C1533.240601,866.611694 1528.091919,879.319153 1522.458618,892.519958 
z"/>
<path fill="#1B66A1" opacity="1.000000" stroke="none" 
	d="
M1240.081787,950.945923 
	C1240.059448,922.846741 1240.037231,894.747620 1239.971436,865.717041 
	C1239.928101,857.057495 1239.928101,849.329285 1239.928101,840.993469 
	C1225.034790,840.993469 1210.684692,840.993469 1196.334717,840.993469 
	C1196.334717,829.211121 1196.334717,817.428711 1196.334717,805.322937 
	C1238.910278,805.322937 1281.405640,805.322937 1324.406128,805.322937 
	C1324.406128,816.716064 1324.406128,827.980957 1323.868164,839.695190 
	C1309.094238,840.144470 1294.858398,840.144470 1279.759888,840.144470 
	C1280.151001,848.509338 1280.510498,856.199036 1280.933105,864.126465 
	C1281.115112,864.689148 1281.106445,865.010559 1280.969971,865.328491 
	C1280.869385,881.939026 1280.740479,898.549377 1280.677856,915.160095 
	C1280.632812,927.125122 1280.675903,939.090393 1280.608032,951.533936 
	C1280.536377,952.012329 1280.501709,952.020813 1280.094482,951.816895 
	C1277.720337,951.481567 1275.754272,951.255859 1273.786133,951.234253 
	C1262.551514,951.111206 1251.316650,951.036865 1240.081787,950.945923 
z"/>
<path fill="#142C50" opacity="1.000000" stroke="none" 
	d="
M1197.508789,527.289795 
	C1199.743896,541.182861 1201.585571,555.091309 1203.438477,568.998291 
	C1204.942017,580.284546 1206.463379,591.568481 1207.968384,602.854553 
	C1209.321167,612.998901 1210.439819,623.180725 1212.071045,633.279968 
	C1213.753784,643.697449 1215.165161,654.252502 1218.036987,664.366455 
	C1226.118408,692.827637 1243.674683,712.850403 1273.734619,717.419556 
	C1303.632812,721.964233 1330.871460,715.433411 1350.737061,690.022949 
	C1354.606567,685.073486 1358.464844,680.115356 1362.560425,674.863586 
	C1363.859131,684.302734 1365.157471,693.740540 1366.527466,703.698303 
	C1379.610229,701.956055 1392.319336,700.232910 1405.037354,698.578857 
	C1416.982178,697.025269 1428.936523,695.544678 1441.316772,694.004395 
	C1442.958130,702.681213 1444.169312,711.385620 1445.437500,720.499817 
	C1419.114136,724.098389 1393.301880,727.627136 1366.878784,731.239319 
	C1365.478638,721.393616 1364.119141,711.834045 1362.734375,702.096985 
	C1357.479004,708.701843 1352.633911,715.157471 1347.408081,721.288574 
	C1333.206177,737.950684 1314.436035,744.733032 1293.153076,745.991760 
	C1249.103516,748.597046 1223.185059,720.809326 1216.204590,683.821655 
	C1211.797852,660.471802 1209.274292,636.764404 1205.988037,613.205933 
	C1202.378906,587.334717 1198.756836,561.463806 1195.477295,535.550110 
	C1195.158569,533.031189 1191.644531,528.992188 1197.508789,527.289795 
z"/>
<path fill="#142B4F" opacity="1.000000" stroke="none" 
	d="
M872.405212,674.230530 
	C882.011536,704.707336 898.471008,730.117981 926.706177,746.513733 
	C945.893921,757.655762 966.669373,761.765808 988.873718,760.549744 
	C1015.904175,759.069397 1035.968384,745.223938 1053.559326,726.319275 
	C1054.780029,725.007507 1056.002563,723.697571 1057.839355,721.726868 
	C1057.839355,731.229858 1057.839355,739.932434 1057.736572,748.965210 
	C1048.460327,757.626526 1039.286987,765.957703 1029.925415,774.570679 
	C1020.402222,779.893127 1010.969910,784.370056 1000.282654,786.248718 
	C974.066406,790.857178 949.384216,786.941284 926.468445,773.568787 
	C898.108643,757.019409 881.652710,731.436951 872.354553,699.756470 
	C872.172241,690.756409 872.288757,682.493469 872.405212,674.230530 
z"/>
<path fill="#142C50" opacity="1.000000" stroke="none" 
	d="
M1543.000000,653.999207 
	C1549.330688,658.242798 1555.376831,663.012024 1562.049561,666.623840 
	C1577.347046,674.904236 1593.740723,677.327271 1611.099121,675.357422 
	C1628.396606,673.394531 1643.873779,667.439453 1657.635376,656.950500 
	C1675.618286,643.244019 1686.744141,624.933594 1692.978638,603.447632 
	C1694.434082,598.431885 1695.635620,593.342468 1697.269287,588.110718 
	C1698.795166,622.074646 1690.340332,652.942322 1665.528198,677.586426 
	C1635.792603,707.120544 1582.947998,714.272400 1547.344482,684.797485 
	C1546.991211,684.893616 1546.996948,684.981995 1547.091797,684.666382 
	C1546.805298,684.209656 1546.424072,684.068542 1546.042725,683.927429 
	C1545.009399,674.250732 1543.976074,664.574097 1542.971436,654.448730 
	C1543.000000,654.000000 1543.000000,653.999207 1543.000000,653.999207 
z"/>
<path fill="#132B4F" opacity="1.000000" stroke="none" 
	d="
M1467.245728,952.290527 
	C1476.578979,951.934326 1485.740723,951.753906 1494.891968,951.989319 
	C1498.756714,952.088684 1500.658691,950.427368 1501.913696,947.070496 
	C1504.235474,940.859985 1506.813354,934.745483 1509.152466,928.541077 
	C1510.069092,926.110107 1511.231812,924.926514 1514.171143,924.960083 
	C1530.153320,925.142639 1546.139404,925.134766 1562.122070,924.978149 
	C1565.387573,924.946228 1566.862671,926.255188 1567.933716,929.119812 
	C1570.255859,935.331177 1572.911377,941.417053 1575.314453,947.599365 
	C1576.476929,950.590271 1578.278076,952.041382 1581.681152,951.969421 
	C1590.835205,951.775879 1599.995239,951.872192 1609.617554,951.782104 
	C1613.510620,959.562683 1616.939209,967.414734 1620.599121,975.796753 
	C1605.711426,975.796753 1591.522339,975.796753 1577.125244,975.796753 
	C1573.655396,967.356018 1570.133911,958.789307 1566.537720,950.041199 
	C1548.454346,950.041199 1530.495483,949.979736 1512.539673,950.179077 
	C1511.338867,950.192383 1509.634277,951.954651 1509.058472,953.289246 
	C1505.839722,960.750427 1502.896118,968.330261 1499.851440,975.887451 
	C1485.813843,975.887451 1471.919189,975.887451 1457.339600,975.887451 
	C1460.706421,967.841675 1463.888184,960.238037 1467.245728,952.290527 
z"/>
<path fill="#2183C2" opacity="1.000000" stroke="none" 
	d="
M722.916016,169.602356 
	C702.810974,174.657593 682.836792,180.091156 662.548523,183.812271 
	C636.404114,188.607452 610.036804,192.231934 583.710999,195.977829 
	C564.907349,198.653366 546.045471,201.005920 527.151917,202.939545 
	C508.230835,204.875977 489.242462,206.170151 470.272400,207.597412 
	C467.334320,207.818466 464.336548,207.245605 460.878235,207.043411 
	C461.958038,205.680908 463.327881,203.525131 465.125366,203.074188 
	C479.132904,199.560013 493.084625,195.502945 507.312500,193.246292 
	C553.797119,185.873474 600.324585,178.691223 646.972961,172.465393 
	C669.367432,169.476578 692.064148,168.706985 714.641663,167.197083 
	C717.339783,167.016647 720.149353,168.504776 722.916016,169.602356 
z"/>
<path fill="#162E51" opacity="1.000000" stroke="none" 
	d="
M1439.614990,494.331238 
	C1441.441162,505.115509 1442.845703,515.925293 1444.286987,526.730164 
	C1446.165405,540.811096 1448.060303,554.889771 1449.972290,568.966125 
	C1451.728638,581.896423 1453.513672,594.822693 1455.292847,607.749817 
	C1456.845947,619.034790 1458.397461,630.320007 1459.969849,641.602295 
	C1461.884888,655.343201 1463.876099,669.073608 1465.732300,682.822327 
	C1467.545410,696.250977 1469.212158,709.699341 1470.976807,723.134583 
	C1472.289429,733.127686 1473.572266,743.126770 1475.122681,753.083557 
	C1475.285400,754.128601 1477.287842,755.800659 1478.236206,755.674561 
	C1495.911865,753.324158 1513.551270,750.701599 1531.212402,748.237671 
	C1537.428955,747.370422 1543.683105,746.774231 1550.339478,746.027954 
	C1551.961548,754.725403 1553.164185,763.449280 1554.448120,772.762695 
	C1528.189819,776.328552 1502.247925,779.851379 1475.837402,783.437927 
	C1474.528320,774.090393 1473.260498,765.244141 1472.054443,756.389526 
	C1466.845581,718.148376 1461.651123,679.905273 1456.458252,641.661926 
	C1451.287720,603.584717 1446.130127,565.505737 1440.955688,527.429077 
	C1439.678955,518.034424 1438.302612,508.652771 1437.107300,499.247955 
	C1436.870361,497.384949 1435.561768,494.701019 1439.614990,494.331238 
z"/>
<path fill="#142C50" opacity="1.000000" stroke="none" 
	d="
M1078.484131,940.218506 
	C1084.236694,942.367615 1089.563599,945.056152 1095.142822,947.032898 
	C1118.183960,955.196716 1141.559814,957.640076 1164.938354,948.829346 
	C1178.228760,943.820496 1188.103149,934.820190 1192.493896,920.371094 
	C1198.650024,941.102844 1188.585327,962.396240 1168.087891,972.164734 
	C1139.013428,986.020874 1089.717896,977.351929 1066.781006,954.168457 
	C1070.564575,949.606384 1074.369507,945.018494 1078.484131,940.218506 
z"/>
<path fill="#122A4E" opacity="1.000000" stroke="none" 
	d="
M1332.016602,952.328979 
	C1371.092529,951.867188 1410.072632,951.881958 1449.517456,951.856689 
	C1449.982178,959.762451 1449.982178,967.708252 1449.982178,975.925598 
	C1410.782471,975.925598 1371.706787,975.925598 1331.920898,975.925598 
	C1331.920898,968.307190 1331.920898,960.556335 1332.016602,952.328979 
z"/>
<path fill="#152D50" opacity="1.000000" stroke="none" 
	d="
M1058.188721,755.471069 
	C1087.976929,755.004333 1117.690918,755.002808 1147.814453,755.003662 
	C1148.223999,764.094482 1148.223999,773.182922 1148.223999,782.526794 
	C1118.119507,782.526794 1088.263672,782.526794 1058.114258,782.526794 
	C1058.114258,773.496338 1058.114258,764.716370 1058.188721,755.471069 
z"/>
<path fill="#142C50" opacity="1.000000" stroke="none" 
	d="
M132.946106,755.418823 
	C162.741547,754.966187 192.412506,754.971497 222.553146,754.958740 
	C223.022812,764.034485 223.022812,773.128357 223.022812,782.537476 
	C193.216339,782.537476 163.388718,782.537476 132.821655,782.537476 
	C132.821655,773.670593 132.821655,764.773682 132.946106,755.418823 
z"/>
<path fill="#142C50" opacity="1.000000" stroke="none" 
	d="
M1668.982422,894.127563 
	C1668.443604,885.857117 1668.034912,877.932922 1667.626343,870.008728 
	C1668.006836,869.867065 1668.387329,869.725403 1668.767822,869.583801 
	C1680.873779,888.009705 1692.979614,906.435608 1705.521973,925.525879 
	C1717.968262,906.460815 1729.987915,888.049377 1742.007446,869.637939 
	C1742.316162,869.704956 1742.624756,869.771973 1742.933472,869.838989 
	C1742.933472,877.374512 1742.933472,884.909973 1742.970947,892.860474 
	C1735.038208,905.275818 1727.050659,917.264709 1719.104492,929.280945 
	C1714.720703,935.910339 1710.406250,942.585693 1705.501709,950.096191 
	C1693.123535,931.175598 1681.118164,912.824707 1668.982422,894.127563 
z"/>
<path fill="#132B4F" opacity="1.000000" stroke="none" 
	d="
M1074.568848,864.077454 
	C1081.041260,878.377502 1093.011230,885.797058 1107.377808,890.031555 
	C1117.359009,892.973328 1127.510010,895.334595 1137.526245,898.163818 
	C1141.170898,899.193420 1145.114258,900.197632 1148.047241,902.385254 
	C1150.362549,904.112000 1152.309570,907.513123 1152.665894,910.388000 
	C1153.115967,914.019531 1150.604980,917.449768 1146.695801,917.803040 
	C1139.318970,918.469849 1131.733643,919.394775 1124.489502,918.385559 
	C1112.711670,916.744690 1101.992676,911.753052 1092.494263,904.372131 
	C1091.134766,903.315674 1089.523071,901.157043 1087.254883,903.894287 
	C1076.237427,896.084412 1073.031372,884.913574 1073.497681,872.219910 
	C1073.594727,869.581726 1073.976440,866.953979 1074.568848,864.077454 
z"/>
<path fill="#122A4E" opacity="1.000000" stroke="none" 
	d="
M1442.569824,864.431335 
	C1442.070557,863.892761 1442.029541,863.346802 1441.692383,862.059570 
	C1439.577637,861.216248 1437.759277,861.028870 1435.940430,861.024963 
	C1414.623169,860.979187 1393.305908,860.960999 1371.988647,860.935486 
	C1371.988647,860.935486 1371.988647,861.008423 1372.006104,860.540283 
	C1372.037720,853.378296 1372.051880,846.684387 1372.066040,839.990479 
	C1372.066040,839.990479 1371.991699,839.994446 1372.462158,840.009644 
	C1398.274658,840.018372 1423.616699,840.011963 1448.958740,840.005615 
	C1448.958740,847.948853 1448.958740,855.892151 1448.958740,864.423889 
	C1446.881348,864.423889 1444.954712,864.423889 1442.569824,864.431335 
z"/>
<path fill="#122A4E" opacity="1.000000" stroke="none" 
	d="
M1441.926758,915.613525 
	C1418.912842,916.074402 1395.958618,916.059448 1372.515137,915.538452 
	C1372.039429,908.018555 1372.052734,901.004700 1372.066040,893.990906 
	C1372.066040,893.990906 1371.992188,893.994751 1372.462646,894.011963 
	C1395.903442,894.041382 1418.873535,894.053467 1441.843750,894.065613 
	C1441.891235,901.089661 1441.938721,908.113770 1441.926758,915.613525 
z"/>
<path fill="#132B4F" opacity="1.000000" stroke="none" 
	d="
M1196.231201,841.455383 
	C1210.684692,840.993469 1225.034790,840.993469 1239.928101,840.993469 
	C1239.928101,849.329285 1239.928101,857.057495 1239.952637,865.228027 
	C1225.545776,865.670471 1211.114258,865.670471 1196.127563,865.670471 
	C1196.127563,857.415161 1196.127563,849.666199 1196.231201,841.455383 
z"/>
<path fill="#122A4E" opacity="1.000000" stroke="none" 
	d="
M1281.429443,865.433716 
	C1281.106445,865.010559 1281.115112,864.689148 1280.946655,863.667603 
	C1280.897095,855.748413 1280.897095,848.525757 1280.897095,840.710571 
	C1295.831299,840.710571 1310.039307,840.710571 1324.247192,840.710571 
	C1324.247192,848.795288 1324.247192,856.879944 1324.247192,865.538879 
	C1310.021973,865.538879 1295.955444,865.538879 1281.429443,865.433716 
z"/>
<path fill="#122A4E" opacity="1.000000" stroke="none" 
	d="
M1280.501709,952.020813 
	C1280.501709,952.020813 1280.536377,952.012329 1280.528076,951.993652 
	C1280.519897,959.901611 1280.519897,967.828186 1280.519897,975.971558 
	C1266.959595,975.971558 1253.737915,975.971558 1240.036377,975.971558 
	C1240.036377,968.184998 1240.036377,960.584106 1240.511963,952.390015 
	C1254.159058,951.871460 1267.330322,951.946167 1280.501709,952.020813 
z"/>
<path fill="#132B4F" opacity="1.000000" stroke="none" 
	d="
M1743.207520,952.414856 
	C1756.258179,951.910828 1769.223755,951.876831 1782.657593,951.757202 
	C1783.125854,959.613647 1783.125854,967.555725 1783.125854,975.850098 
	C1770.001343,975.850098 1756.798096,975.850098 1743.122559,975.850098 
	C1743.122559,968.123230 1743.122559,960.504028 1743.207520,952.414856 
z"/>
<path fill="#122A4E" opacity="1.000000" stroke="none" 
	d="
M1628.129395,952.392578 
	C1641.109985,951.916077 1654.010742,951.912659 1667.367676,951.893921 
	C1667.823608,959.825867 1667.823608,967.773010 1667.823608,975.954773 
	C1654.661987,975.954773 1641.734619,975.954773 1628.049561,975.954773 
	C1628.049561,968.333618 1628.049561,960.599609 1628.129395,952.392578 
z"/>
<path fill="#1C3356" opacity="1.000000" stroke="none" 
	d="
M279.768219,494.213196 
	C278.322754,494.660065 276.571777,495.051117 274.512634,495.583923 
	C271.152283,474.703552 268.057465,453.687531 265.061127,432.657440 
	C262.579376,415.238953 260.075012,397.820953 257.927948,380.360046 
	C257.552643,377.307922 258.896698,374.044373 259.748657,370.768860 
	C262.351440,386.397705 264.699310,402.129395 266.939789,417.876373 
	C269.133148,433.292084 271.199097,448.725830 273.356171,464.146759 
	C274.527863,472.523285 275.677582,480.905457 277.063141,489.247528 
	C277.349152,490.969452 278.636749,492.525085 279.768219,494.213196 
z"/>
<path fill="#1C3356" opacity="1.000000" stroke="none" 
	d="
M1339.600342,507.985107 
	C1343.585449,533.937439 1347.355713,559.880676 1350.746948,585.873413 
	C1351.961792,595.183777 1352.331055,604.609131 1352.917114,613.992615 
	C1353.024536,615.713989 1352.317017,617.486267 1352.024780,619.539429 
	C1350.733521,611.380981 1349.277344,602.935669 1348.095947,594.452026 
	C1344.436890,568.170288 1340.786133,541.886047 1337.455811,515.561890 
	C1337.167236,513.280640 1333.911499,509.323944 1339.600342,507.985107 
z"/>
<path fill="#1C3356" opacity="1.000000" stroke="none" 
	d="
M462.626343,231.889282 
	C464.350922,239.751282 465.801971,247.659271 466.993042,255.606247 
	C468.632477,266.544769 470.066071,277.514099 471.610474,288.467010 
	C471.900848,290.526245 473.160400,293.011108 468.954529,292.950928 
	C465.837646,273.946014 463.048431,254.923508 460.449890,235.874969 
	C460.285675,234.671204 461.606842,233.264801 462.626343,231.889282 
z"/>
<path fill="#4C78A0" opacity="1.000000" stroke="none" 
	d="
M1449.028320,839.748535 
	C1423.616699,840.011963 1398.274658,840.018372 1372.462646,840.046753 
	C1373.866089,839.711121 1375.738770,839.047791 1377.613403,839.042053 
	C1401.082031,838.970093 1424.550903,838.993408 1448.485107,838.985962 
	C1448.999512,839.150146 1449.048828,839.320801 1449.028320,839.748535 
z"/>
<path fill="#4C78A0" opacity="1.000000" stroke="none" 
	d="
M1441.888916,893.789062 
	C1418.873535,894.053467 1395.903442,894.041382 1372.463135,894.049011 
	C1373.862671,893.710876 1375.731201,893.048645 1377.602173,893.041687 
	C1398.701660,892.963196 1419.801392,892.985352 1441.357422,892.972900 
	C1441.853760,893.147583 1441.893799,893.330017 1441.888916,893.789062 
z"/>
<path fill="#7194B3" opacity="1.000000" stroke="none" 
	d="
M1324.337402,840.594604 
	C1310.039307,840.710571 1295.831299,840.710571 1280.897095,840.710571 
	C1280.897095,848.525757 1280.897095,855.748413 1280.883545,863.429871 
	C1280.510498,856.199036 1280.151001,848.509338 1279.759888,840.144470 
	C1294.858398,840.144470 1309.094238,840.144470 1323.824463,840.175049 
	C1324.318848,840.205688 1324.427734,840.478699 1324.337402,840.594604 
z"/>
<path fill="#7194B3" opacity="1.000000" stroke="none" 
	d="
M1280.094482,951.816895 
	C1267.330322,951.946167 1254.159058,951.871460 1240.539307,951.925476 
	C1240.040405,951.869934 1239.989868,951.685730 1240.010498,951.223694 
	C1251.316650,951.036865 1262.551514,951.111206 1273.786133,951.234253 
	C1275.754272,951.255859 1277.720337,951.481567 1280.094482,951.816895 
z"/>
<path fill="#EFC318" opacity="1.000000" stroke="none" 
	d="
M569.309937,747.986206 
	C569.070679,739.070374 569.070679,730.506409 569.070679,722.654846 
	C560.588257,730.150879 552.248840,738.167053 543.240112,745.342957 
	C526.184509,758.928467 506.113617,761.963074 485.035400,760.510254 
	C468.904510,759.398499 453.663757,755.343506 440.358704,745.732666 
	C422.175812,732.598328 412.324432,714.301147 408.048004,692.668152 
	C407.471130,689.749939 407.166168,686.778015 406.647522,683.381165 
	C406.321411,666.205200 405.978333,649.479675 405.871277,632.752625 
	C405.737457,611.847412 405.797821,590.940918 405.678009,569.595581 
	C405.674927,550.166504 405.772308,531.176819 405.858429,512.187195 
	C405.878815,507.696320 405.861481,503.205261 405.861481,498.253357 
	C411.131714,498.253357 416.214447,498.253357 421.852386,498.253357 
	C421.852386,491.761566 421.852386,485.695740 421.852386,479.276123 
	C441.131042,479.276123 459.857178,479.276123 479.175171,479.276123 
	C479.175171,485.259705 479.175171,491.308289 479.175171,497.795837 
	C484.995087,497.795837 490.250305,497.795837 496.280731,497.795837 
	C496.280731,500.143280 496.280670,502.050476 496.280731,503.957642 
	C496.282135,547.782043 496.181885,591.606995 496.394348,635.430359 
	C496.426239,642.013794 497.164703,648.795410 498.885132,655.129822 
	C503.424103,671.841858 516.095947,680.788574 533.280823,680.338989 
	C550.748291,679.881897 564.330872,669.243958 567.856262,652.761902 
	C569.030396,647.272156 569.672668,641.561340 569.691345,635.948730 
	C569.837402,592.123535 569.772217,548.297607 569.772217,504.471954 
	C569.772217,502.503510 569.772217,500.535034 569.772217,498.129730 
	C575.561218,498.129730 580.985474,498.129730 586.954041,498.129730 
	C586.954041,491.645844 586.954041,485.583618 586.954041,479.221130 
	C606.236877,479.221130 624.968567,479.221130 644.277527,479.221130 
	C644.277527,485.358704 644.277527,491.418365 644.277527,497.929718 
	C649.758240,497.929718 654.678528,497.929718 659.768616,497.929718 
	C659.931396,498.981049 660.111511,499.600891 660.111450,500.220703 
	C660.105530,584.871826 660.086487,669.523010 659.488281,754.589905 
	C629.335632,755.045227 599.762756,755.084839 570.189819,755.124390 
	C569.976257,752.862305 569.762695,750.600159 569.309937,747.986206 
z"/>
<path fill="#2FABCB" opacity="1.000000" stroke="none" 
	d="
M872.287048,673.820068 
	C872.288757,682.493469 872.172241,690.756409 872.107727,699.483887 
	C872.106445,718.041260 872.053162,736.134155 871.523804,754.659180 
	C841.039307,755.123718 811.030701,755.156189 781.022156,755.188721 
	C781.022156,639.756287 781.022156,524.323975 781.022156,408.130920 
	C786.336304,408.130920 791.368713,408.130920 797.319397,408.130920 
	C797.319397,401.783051 797.319397,396.182892 798.087524,390.291931 
	C817.561646,390.010742 836.267761,390.020416 854.973816,390.030090 
	C854.983948,395.696533 854.994080,401.362946 855.293152,407.802429 
	C858.554382,408.714600 861.525879,408.944153 864.499329,408.974335 
	C870.993225,409.040344 870.996826,408.998932 870.999756,415.438354 
	C871.025269,471.360291 871.049561,527.282227 871.074219,583.204163 
	C869.440430,596.519287 867.066223,609.795166 866.358948,623.159302 
	C865.460999,640.125793 867.869507,656.930725 872.287048,673.820068 
z"/>
<path fill="#A3CD39" opacity="1.000000" stroke="none" 
	d="
M676.162598,754.992310 
	C676.108032,753.830627 676.005798,752.668945 676.005798,751.507263 
	C676.006042,667.327087 676.014404,583.146851 676.523438,498.487305 
	C706.641296,497.948425 736.257751,497.888947 765.874268,497.829468 
	C766.144043,499.423553 766.649109,501.017548 766.649902,502.611816 
	C766.688049,585.256470 766.684875,667.901123 766.671387,750.545837 
	C766.671143,751.867798 766.488586,753.189697 765.667358,754.771729 
	C735.350037,755.018616 705.756287,755.005432 676.162598,754.992310 
z"/>
<path fill="#122A4E" opacity="1.000000" stroke="none" 
	d="
M609.536499,975.987061 
	C603.028931,972.137634 596.132202,968.814880 590.083252,964.344788 
	C567.533997,947.681152 549.868713,926.293701 533.062561,904.133484 
	C524.136292,892.363708 515.305908,880.517029 506.146545,868.930908 
	C503.319916,865.355347 499.550690,862.524902 495.305084,858.490540 
	C504.719147,859.531189 513.361816,860.124390 521.878662,861.497986 
	C544.698730,865.178589 567.417969,869.502502 590.269104,872.964661 
	C604.964600,875.191101 619.786621,876.961670 634.616638,877.826721 
	C653.785583,878.944824 672.497681,875.032471 691.065857,870.591858 
	C724.728638,862.541321 757.302612,851.306702 788.354919,836.062195 
	C800.945801,829.880859 812.678223,821.950806 825.027100,814.683594 
	C824.623169,843.674805 816.504639,871.354797 801.939697,897.689941 
	C794.862732,897.525879 788.378296,896.411011 782.070374,897.047180 
	C750.243103,900.256836 722.966187,913.495056 699.730225,935.384644 
	C697.594238,937.396851 694.551636,938.446838 691.483643,939.923401 
	C685.144165,940.780029 679.148315,941.227539 673.375854,942.608398 
	C649.323486,948.362122 628.146973,959.754822 609.536499,975.987061 
z"/>
<path fill="#A3CD39" opacity="1.000000" stroke="none" 
	d="
M676.144714,474.004669 
	C676.144714,452.244629 676.144714,430.484589 676.144714,408.175110 
	C681.431702,408.175110 686.496948,408.175110 692.164551,408.175110 
	C692.164551,401.599182 692.164551,395.551880 692.164551,389.265869 
	C711.523560,389.265869 730.266846,389.265869 749.675171,389.265869 
	C749.675171,395.594513 749.675171,401.961487 749.675171,408.957001 
	C754.915955,408.957001 759.506531,408.957001 764.888550,409.168945 
	C765.776184,430.920441 765.872437,452.460022 765.544922,474.005493 
	C762.726379,474.282898 760.331543,474.554413 757.630981,474.895111 
	C756.912415,474.918304 756.499512,474.872314 755.970947,474.666016 
	C755.541260,474.612610 755.227356,474.719482 754.611572,474.895386 
	C753.902039,474.918365 753.494324,474.872345 752.970947,474.666016 
	C752.541260,474.612579 752.227356,474.719482 751.611572,474.895386 
	C750.902039,474.918396 750.494324,474.872345 749.970947,474.666016 
	C749.541260,474.612579 749.227356,474.719452 748.611572,474.895386 
	C747.902039,474.918365 747.494324,474.872345 746.970947,474.666016 
	C746.541260,474.612610 746.227356,474.719513 745.611572,474.895386 
	C744.902039,474.918365 744.494324,474.872345 743.970947,474.666016 
	C743.541260,474.612610 743.227356,474.719482 742.611572,474.895386 
	C741.902039,474.918365 741.494324,474.872345 740.970947,474.666016 
	C740.541260,474.612610 740.227356,474.719482 739.611572,474.895386 
	C738.902039,474.918396 738.494324,474.872375 737.970947,474.666016 
	C737.541260,474.612579 737.227356,474.719482 736.611572,474.895386 
	C735.902039,474.918365 735.494324,474.872345 734.970947,474.666016 
	C734.541260,474.612579 734.227356,474.719452 733.611572,474.895386 
	C732.902039,474.918365 732.494324,474.872345 731.970947,474.666016 
	C731.541260,474.612640 731.227356,474.719513 730.611572,474.895386 
	C729.902039,474.918396 729.494324,474.872345 728.970947,474.666016 
	C728.541260,474.612610 728.227356,474.719482 727.611572,474.895386 
	C726.902039,474.918365 726.494324,474.872345 725.970947,474.666016 
	C725.541260,474.612610 725.227356,474.719482 724.611572,474.895386 
	C723.902039,474.918396 723.494324,474.872345 722.970947,474.666016 
	C722.541260,474.612579 722.227356,474.719482 721.611572,474.895386 
	C720.902039,474.918365 720.494324,474.872345 719.970947,474.666016 
	C719.541260,474.612579 719.227356,474.719452 718.611572,474.895386 
	C717.902039,474.918396 717.494324,474.872345 716.970947,474.666016 
	C716.541260,474.612640 716.227356,474.719513 715.611572,474.895386 
	C714.902039,474.918365 714.494324,474.872345 713.970947,474.666016 
	C713.541260,474.612610 713.227356,474.719513 712.611572,474.895386 
	C711.902039,474.918396 711.494324,474.872345 710.970947,474.666016 
	C710.541260,474.612610 710.227356,474.719482 709.611572,474.895386 
	C708.902039,474.918365 708.494324,474.872345 707.970947,474.666016 
	C707.541260,474.612610 707.227356,474.719482 706.611572,474.895386 
	C705.902039,474.918396 705.494324,474.872345 704.970947,474.666016 
	C704.541260,474.612579 704.227356,474.719482 703.611572,474.895386 
	C702.902039,474.918365 702.494324,474.872345 701.970947,474.666016 
	C701.541260,474.612640 701.227356,474.719513 700.611572,474.895386 
	C699.902039,474.918365 699.494324,474.872345 698.970947,474.666016 
	C698.541260,474.612610 698.227356,474.719513 697.611572,474.895386 
	C696.902039,474.918365 696.494324,474.872345 695.970947,474.666016 
	C695.541260,474.612610 695.227356,474.719482 694.611572,474.895386 
	C693.902039,474.918396 693.494324,474.872375 692.970947,474.666016 
	C692.541260,474.612610 692.227356,474.719482 691.611572,474.895386 
	C690.902039,474.918365 690.494324,474.872345 689.970947,474.666016 
	C689.541260,474.612579 689.227356,474.719482 688.611572,474.895386 
	C687.902039,474.918365 687.494324,474.872345 686.970947,474.666016 
	C686.541260,474.612640 686.227356,474.719513 685.607727,474.895447 
	C684.889221,474.918335 684.476440,474.872192 683.760376,474.568970 
	C681.019592,474.209442 678.582153,474.107056 676.144714,474.004669 
z"/>
<path fill="#E64D3C" opacity="1.000000" stroke="none" 
	d="
M609.581726,976.368896 
	C628.146973,959.754822 649.323486,948.362122 673.375854,942.608398 
	C679.148315,941.227539 685.144165,940.780029 691.932983,939.943115 
	C694.626404,939.923645 696.424072,939.864197 698.206116,939.830688 
	C698.190491,939.856567 698.137451,939.885681 698.131836,940.216553 
	C699.428528,940.683167 700.730774,940.818970 702.434204,940.967224 
	C719.240356,944.807617 734.020813,952.086304 747.547729,962.028015 
	C721.330750,980.690186 692.738037,992.628906 659.989075,991.783630 
	C642.623718,991.335388 626.289001,986.351013 610.997559,978.075806 
	C610.459229,977.784485 610.080200,977.199036 609.581726,976.368896 
z"/>
<path fill="#E54E3C" opacity="1.000000" stroke="none" 
	d="
M698.221741,939.804749 
	C696.424072,939.864197 694.626404,939.923645 692.379395,939.963379 
	C694.551636,938.446838 697.594238,937.396851 699.730225,935.384644 
	C722.966187,913.495056 750.243103,900.256836 782.070374,897.047180 
	C788.378296,896.411011 794.862732,897.525879 801.669800,897.891602 
	C801.966553,898.593079 802.024780,899.327148 801.728394,899.866272 
	C789.657227,921.823730 774.355530,941.107971 754.103516,956.426758 
	C744.188171,949.670532 734.144653,944.404968 722.962463,941.688599 
	C714.850281,939.718018 706.680359,937.618896 698.221741,939.804749 
z"/>
<path fill="#132B4F" opacity="1.000000" stroke="none" 
	d="
M781.046997,755.640869 
	C811.030701,755.156189 841.039307,755.123718 871.512573,755.139465 
	C871.977295,763.824158 871.977295,772.460693 871.977295,781.708618 
	C869.875854,781.837708 868.135620,782.036255 866.395264,782.037537 
	C839.772522,782.057373 813.148926,781.944885 786.527893,782.156250 
	C782.074341,782.191589 780.755493,780.945007 780.987854,776.552734 
	C781.347717,769.750366 781.075867,762.914551 781.046997,755.640869 
z"/>
<path fill="#122A4E" opacity="1.000000" stroke="none" 
	d="
M676.102051,755.456238 
	C705.756287,755.005432 735.350037,755.018616 765.395020,755.095947 
	C765.846313,763.926270 765.846313,772.692322 765.846313,781.762024 
	C735.848755,781.762024 706.323120,781.762024 676.041565,781.762024 
	C676.041565,773.079224 676.041565,764.499756 676.102051,755.456238 
z"/>
<path fill="#122A4E" opacity="1.000000" stroke="none" 
	d="
M570.139038,755.582275 
	C599.762756,755.084839 629.335632,755.045227 659.356445,755.048218 
	C659.804321,763.854736 659.804321,772.618652 659.804321,781.711670 
	C629.909119,781.711670 600.405945,781.711670 570.088318,781.711670 
	C570.088318,773.170410 570.088318,764.605225 570.139038,755.582275 
z"/>
<path fill="#122A4E" opacity="1.000000" stroke="none" 
	d="
M717.086670,474.826324 
	C717.494324,474.872345 717.902039,474.918396 718.905518,474.939789 
	C719.696472,474.885529 719.891541,474.855927 720.086670,474.826294 
	C720.494324,474.872345 720.902039,474.918365 721.905518,474.939758 
	C722.696472,474.885529 722.891541,474.855927 723.086670,474.826324 
	C723.494324,474.872345 723.902039,474.918396 724.905518,474.939789 
	C725.696472,474.885529 725.891541,474.855927 726.086670,474.826294 
	C726.494324,474.872345 726.902039,474.918365 727.905518,474.939758 
	C728.696472,474.885529 728.891541,474.855927 729.086670,474.826324 
	C729.494324,474.872345 729.902039,474.918396 730.905518,474.939789 
	C731.696472,474.885529 731.891541,474.855927 732.086670,474.826294 
	C732.494324,474.872345 732.902039,474.918365 733.905518,474.939758 
	C734.696472,474.885529 734.891541,474.855927 735.086670,474.826324 
	C735.494324,474.872345 735.902039,474.918365 736.905518,474.939789 
	C737.696472,474.885529 737.891541,474.855927 738.086670,474.826324 
	C738.494324,474.872375 738.902039,474.918396 739.905518,474.939789 
	C740.696472,474.885529 740.891541,474.855927 741.086670,474.826324 
	C741.494324,474.872345 741.902039,474.918365 742.905518,474.939789 
	C743.696472,474.885529 743.891541,474.855927 744.086670,474.826294 
	C744.494324,474.872345 744.902039,474.918365 745.905518,474.939758 
	C746.696472,474.885529 746.891541,474.855927 747.086670,474.826324 
	C747.494324,474.872345 747.902039,474.918365 748.905518,474.939789 
	C749.696472,474.885529 749.891541,474.855927 750.086670,474.826324 
	C750.494324,474.872345 750.902039,474.918396 751.905518,474.939789 
	C752.696472,474.885529 752.891541,474.855927 753.086670,474.826324 
	C753.494324,474.872345 753.902039,474.918365 754.905518,474.939789 
	C755.696472,474.885529 755.891541,474.855927 756.086670,474.826294 
	C756.499512,474.872314 756.912415,474.918304 758.078857,474.962280 
	C761.213440,474.973816 763.594360,474.987457 765.958496,475.089813 
	C765.941711,475.178558 766.029663,475.336334 766.029663,475.336334 
	C766.000061,482.530731 765.970398,489.725159 765.907471,497.374512 
	C736.257751,497.888947 706.641296,497.948425 676.566711,498.022827 
	C676.081116,490.662964 676.053650,483.288147 676.488464,475.460388 
	C679.321716,474.946991 681.692688,474.886536 684.063660,474.826111 
	C684.476440,474.872192 684.889221,474.918335 685.901672,474.939819 
	C686.696472,474.885529 686.891541,474.855927 687.086670,474.826294 
	C687.494324,474.872345 687.902039,474.918365 688.905518,474.939758 
	C689.696472,474.885529 689.891541,474.855927 690.086670,474.826324 
	C690.494324,474.872345 690.902039,474.918365 691.905518,474.939789 
	C692.696472,474.885529 692.891541,474.855927 693.086670,474.826324 
	C693.494324,474.872375 693.902039,474.918396 694.905518,474.939789 
	C695.696472,474.885529 695.891541,474.855927 696.086670,474.826324 
	C696.494324,474.872345 696.902039,474.918365 697.905518,474.939789 
	C698.696472,474.885529 698.891541,474.855927 699.086670,474.826294 
	C699.494324,474.872345 699.902039,474.918365 700.905518,474.939758 
	C701.696472,474.885529 701.891541,474.855927 702.086670,474.826324 
	C702.494324,474.872345 702.902039,474.918365 703.905518,474.939789 
	C704.696472,474.885529 704.891541,474.855927 705.086670,474.826324 
	C705.494324,474.872345 705.902039,474.918396 706.905518,474.939789 
	C707.696472,474.885529 707.891541,474.855927 708.086670,474.826324 
	C708.494324,474.872345 708.902039,474.918365 709.905518,474.939789 
	C710.696472,474.885529 710.891541,474.855927 711.086670,474.826324 
	C711.494324,474.872345 711.902039,474.918396 712.905518,474.939789 
	C713.696472,474.885529 713.891541,474.855927 714.086670,474.826324 
	C714.494324,474.872345 714.902039,474.918365 715.905518,474.939789 
	C716.696472,474.885529 716.891541,474.855927 717.086670,474.826324 
z"/>
<path fill="#162E51" opacity="1.000000" stroke="none" 
	d="
M698.206116,939.830688 
	C706.680359,937.618896 714.850281,939.718018 722.962463,941.688599 
	C734.144653,944.404968 744.188171,949.670532 753.771301,956.441650 
	C751.941345,958.426331 749.957642,960.138489 747.760803,961.939331 
	C734.020813,952.086304 719.240356,944.807617 702.209717,940.698547 
	C700.435181,940.240173 699.286316,940.062927 698.137451,939.885742 
	C698.137451,939.885681 698.190491,939.856567 698.206116,939.830688 
z"/>
<path fill="#4AAACC" opacity="1.000000" stroke="none" 
	d="
M871.316162,582.962585 
	C871.049561,527.282227 871.025269,471.360291 870.999756,415.438354 
	C870.996826,408.998932 870.993225,409.040344 864.499329,408.974335 
	C861.525879,408.944153 858.554382,408.714600 855.298828,408.267761 
	C860.464966,407.960083 865.914246,407.960083 872.000183,407.960083 
	C872.000183,410.509857 872.000244,412.450897 872.000183,414.391968 
	C871.999512,466.995697 871.996155,519.599426 872.008362,572.203125 
	C872.008850,574.191406 872.160889,576.179749 872.479736,578.483154 
	C872.330750,580.105835 871.944458,581.413452 871.316162,582.962585 
z"/>
<path fill="#7194B3" opacity="1.000000" stroke="none" 
	d="
M765.968628,473.999603 
	C765.872437,452.460022 765.776184,430.920441 765.351257,409.090027 
	C765.684265,409.244934 766.925354,409.691681 766.924561,410.136200 
	C766.886414,431.644226 766.741211,453.152069 766.318848,474.998108 
	C766.029663,475.336334 765.941711,475.178558 765.982788,474.839294 
	C766.005371,474.333221 765.987000,474.166412 765.968628,473.999603 
z"/>
<path fill="#4AAACC" opacity="1.000000" stroke="none" 
	d="
M854.707275,389.705627 
	C836.267761,390.020416 817.561646,390.010742 798.376038,389.988647 
	C798.463684,389.672791 799.031677,389.102722 799.597839,389.104523 
	C817.878906,389.162720 836.159851,389.276093 854.707275,389.705627 
z"/>
<path fill="#A9C562" opacity="1.000000" stroke="none" 
	d="
M683.760376,474.568970 
	C681.692688,474.886536 679.321716,474.946991 676.512634,474.990723 
	C676.074524,474.973999 676.032288,474.483490 676.088501,474.244080 
	C678.582153,474.107056 681.019592,474.209442 683.760376,474.568970 
z"/>
<path fill="#FDFCFC" opacity="1.000000" stroke="none" 
	d="
M1026.264160,556.694153 
	C1050.651123,565.147217 1064.609253,582.549561 1069.735596,606.746765 
	C1073.842163,626.130188 1072.664429,645.514832 1063.152710,663.470886 
	C1050.941528,686.523010 1031.739624,698.569458 1005.415894,697.937012 
	C980.685608,697.342957 962.808228,685.125916 951.869019,663.384766 
	C939.652771,639.105652 939.167969,614.022888 951.172302,589.590210 
	C965.558289,560.309937 994.420532,547.989746 1026.264160,556.694153 
M956.939514,667.487488 
	C966.529175,682.535461 980.241943,691.799255 997.822144,693.804199 
	C1035.627808,698.115845 1060.883179,669.333191 1062.494141,639.857544 
	C1064.551147,602.224487 1028.070068,571.888733 991.626770,581.640564 
	C953.551697,591.828979 936.857788,632.368469 956.939514,667.487488 
z"/>
<path fill="#FCFBFB" opacity="1.000000" stroke="none" 
	d="
M320.891541,673.883484 
	C304.162903,694.327026 282.733704,702.064514 257.596588,696.564941 
	C232.116501,690.990417 216.983459,673.328064 210.277283,648.916504 
	C204.014954,626.120667 205.826202,603.687317 218.914673,583.262329 
	C232.601852,561.902893 252.485748,551.815247 277.717865,554.233032 
	C302.097382,556.569153 319.968811,569.769409 329.109741,592.207153 
	C340.543243,620.272339 339.057983,647.969238 320.891541,673.883484 
M299.555817,585.884338 
	C293.081970,583.938171 286.713074,580.832825 280.117035,580.235474 
	C239.640045,576.570190 212.478256,612.084534 217.713181,645.301575 
	C222.999374,678.844055 256.025940,701.337769 288.550018,692.490723 
	C311.151306,686.342834 328.450043,667.144287 330.988434,645.391357 
	C333.944031,620.063538 322.680878,598.338074 299.555817,585.884338 
z"/>
<path fill="#FDFEFE" opacity="1.000000" stroke="none" 
	d="
M1618.142334,576.081665 
	C1616.468018,590.879700 1608.231934,601.481201 1595.472900,607.911316 
	C1565.347046,623.093445 1535.973511,603.280212 1529.875366,573.920532 
	C1529.745117,573.293030 1529.916016,572.602966 1530.140137,571.211060 
	C1530.872559,569.093140 1531.390869,567.697998 1531.952759,566.320557 
	C1544.097534,536.546631 1580.593506,528.698792 1603.952881,550.785156 
	C1611.337158,557.766846 1615.341064,566.568359 1618.142334,576.081665 
z"/>
<path fill="#142C50" opacity="1.000000" stroke="none" 
	d="
M1618.410767,575.785889 
	C1615.341064,566.568359 1611.337158,557.766846 1603.952881,550.785156 
	C1580.593506,528.698792 1544.097534,536.546631 1531.952759,566.320557 
	C1531.390869,567.697998 1530.872559,569.093140 1530.128418,570.792480 
	C1523.144653,547.747620 1536.093750,515.723938 1566.648926,511.130280 
	C1590.879395,507.487457 1613.463501,524.718018 1617.931519,549.934937 
	C1619.433350,558.410095 1620.817017,566.902283 1618.410767,575.785889 
z"/>
<path fill="#142C50" opacity="1.000000" stroke="none" 
	d="
M1543.000000,654.000366 
	C1542.850586,653.842712 1542.701294,653.684753 1542.551880,653.526733 
	C1542.660645,653.575012 1542.769409,653.623352 1542.939087,653.835449 
	C1543.000000,653.999207 1543.000000,654.000000 1543.000000,654.000366 
z"/>
<path fill="#FFFFFF" opacity="1.000000" stroke="none" 
	d="
M1546.097656,684.252930 
	C1546.424072,684.068542 1546.805298,684.209656 1547.135986,684.664062 
	C1546.774414,684.844360 1546.463501,684.711365 1546.097656,684.252930 
z"/>
<path fill="#4C78A0" opacity="1.000000" stroke="none" 
	d="
M1372.265137,861.255493 
	C1393.305908,860.960999 1414.623169,860.979187 1435.940430,861.024963 
	C1437.759277,861.028870 1439.577637,861.216248 1441.639160,861.652161 
	C1420.243042,861.990601 1398.603882,862.003479 1376.964722,861.981628 
	C1375.490234,861.980103 1374.015869,861.716980 1372.265137,861.255493 
z"/>
<path fill="#4C78A0" opacity="1.000000" stroke="none" 
	d="
M1371.752808,894.272705 
	C1372.052734,901.004700 1372.039429,908.018555 1372.052856,915.498169 
	C1371.730103,915.828430 1371.072998,915.688965 1371.074707,915.557678 
	C1371.161255,908.556213 1371.303345,901.555420 1371.752808,894.272705 
z"/>
<path fill="#4C78A0" opacity="1.000000" stroke="none" 
	d="
M1371.752686,840.272461 
	C1372.051880,846.684387 1372.037720,853.378296 1372.042480,860.542725 
	C1371.854004,854.193604 1371.646606,847.373962 1371.752686,840.272461 
z"/>
<path fill="#132B4F" opacity="1.000000" stroke="none" 
	d="
M1522.943115,892.026611 
	C1528.091919,879.319153 1533.240601,866.611694 1538.611206,853.356873 
	C1543.764038,866.311401 1548.747803,878.841064 1553.626465,892.035278 
	C1544.184570,892.830139 1534.848022,892.988953 1525.511108,893.042786 
	C1524.657104,893.047729 1523.799316,892.381287 1522.943115,892.026611 
z"/>
<path fill="#4C78A0" opacity="1.000000" stroke="none" 
	d="
M1522.700928,892.273315 
	C1523.799316,892.381287 1524.657104,893.047729 1525.511108,893.042786 
	C1534.848022,892.988953 1544.184570,892.830139 1553.788818,892.362915 
	C1553.957031,892.632263 1553.860474,893.768921 1553.757935,893.769470 
	C1543.488403,893.824524 1533.218506,893.799561 1522.949097,893.716187 
	C1522.782471,893.714905 1522.622070,892.935974 1522.700928,892.273315 
z"/>
<path fill="#A9C562" opacity="1.000000" stroke="none" 
	d="
M765.544922,474.005493 
	C765.987000,474.166412 766.005371,474.333221 765.999573,474.750549 
	C763.594360,474.987457 761.213440,474.973816 758.384644,474.893066 
	C760.331543,474.554413 762.726379,474.282898 765.544922,474.005493 
z"/>
<path fill="#A9C562" opacity="1.000000" stroke="none" 
	d="
M707.970947,474.666016 
	C707.891541,474.855927 707.696472,474.885529 707.207397,474.870758 
	C707.227356,474.719482 707.541260,474.612610 707.970947,474.666016 
z"/>
<path fill="#A9C562" opacity="1.000000" stroke="none" 
	d="
M725.970947,474.666016 
	C725.891541,474.855927 725.696472,474.885529 725.207397,474.870758 
	C725.227356,474.719482 725.541260,474.612610 725.970947,474.666016 
z"/>
<path fill="#A9C562" opacity="1.000000" stroke="none" 
	d="
M719.970947,474.666016 
	C719.891541,474.855927 719.696472,474.885529 719.207397,474.870758 
	C719.227356,474.719452 719.541260,474.612579 719.970947,474.666016 
z"/>
<path fill="#A9C562" opacity="1.000000" stroke="none" 
	d="
M716.970947,474.666016 
	C716.891541,474.855927 716.696472,474.885529 716.207397,474.870789 
	C716.227356,474.719513 716.541260,474.612640 716.970947,474.666016 
z"/>
<path fill="#A9C562" opacity="1.000000" stroke="none" 
	d="
M713.970947,474.666016 
	C713.891541,474.855927 713.696472,474.885529 713.207397,474.870789 
	C713.227356,474.719513 713.541260,474.612610 713.970947,474.666016 
z"/>
<path fill="#A9C562" opacity="1.000000" stroke="none" 
	d="
M710.970947,474.666016 
	C710.891541,474.855927 710.696472,474.885529 710.207397,474.870789 
	C710.227356,474.719482 710.541260,474.612610 710.970947,474.666016 
z"/>
<path fill="#A9C562" opacity="1.000000" stroke="none" 
	d="
M704.970947,474.666016 
	C704.891541,474.855927 704.696472,474.885529 704.207397,474.870758 
	C704.227356,474.719482 704.541260,474.612579 704.970947,474.666016 
z"/>
<path fill="#A9C562" opacity="1.000000" stroke="none" 
	d="
M740.970947,474.666016 
	C740.891541,474.855927 740.696472,474.885529 740.207397,474.870758 
	C740.227356,474.719482 740.541260,474.612610 740.970947,474.666016 
z"/>
<path fill="#A9C562" opacity="1.000000" stroke="none" 
	d="
M755.970947,474.666016 
	C755.891541,474.855927 755.696472,474.885529 755.207397,474.870758 
	C755.227356,474.719482 755.541260,474.612610 755.970947,474.666016 
z"/>
<path fill="#A9C562" opacity="1.000000" stroke="none" 
	d="
M698.970947,474.666016 
	C698.891541,474.855927 698.696472,474.885529 698.207397,474.870789 
	C698.227356,474.719513 698.541260,474.612610 698.970947,474.666016 
z"/>
<path fill="#A9C562" opacity="1.000000" stroke="none" 
	d="
M695.970947,474.666016 
	C695.891541,474.855927 695.696472,474.885529 695.207397,474.870789 
	C695.227356,474.719482 695.541260,474.612610 695.970947,474.666016 
z"/>
<path fill="#A9C562" opacity="1.000000" stroke="none" 
	d="
M692.970947,474.666016 
	C692.891541,474.855927 692.696472,474.885529 692.207397,474.870758 
	C692.227356,474.719482 692.541260,474.612610 692.970947,474.666016 
z"/>
<path fill="#A9C562" opacity="1.000000" stroke="none" 
	d="
M749.970947,474.666016 
	C749.891541,474.855927 749.696472,474.885529 749.207397,474.870728 
	C749.227356,474.719452 749.541260,474.612579 749.970947,474.666016 
z"/>
<path fill="#A9C562" opacity="1.000000" stroke="none" 
	d="
M746.970947,474.666016 
	C746.891541,474.855927 746.696472,474.885529 746.207397,474.870789 
	C746.227356,474.719513 746.541260,474.612610 746.970947,474.666016 
z"/>
<path fill="#A9C562" opacity="1.000000" stroke="none" 
	d="
M743.970947,474.666016 
	C743.891541,474.855927 743.696472,474.885529 743.207397,474.870789 
	C743.227356,474.719482 743.541260,474.612610 743.970947,474.666016 
z"/>
<path fill="#A9C562" opacity="1.000000" stroke="none" 
	d="
M689.970947,474.666016 
	C689.891541,474.855927 689.696472,474.885529 689.207397,474.870758 
	C689.227356,474.719482 689.541260,474.612579 689.970947,474.666016 
z"/>
<path fill="#A9C562" opacity="1.000000" stroke="none" 
	d="
M686.970947,474.666046 
	C686.891541,474.855927 686.696472,474.885529 686.207397,474.870789 
	C686.227356,474.719513 686.541260,474.612640 686.970947,474.666046 
z"/>
<path fill="#A9C562" opacity="1.000000" stroke="none" 
	d="
M722.970947,474.666016 
	C722.891541,474.855927 722.696472,474.885529 722.207397,474.870758 
	C722.227356,474.719482 722.541260,474.612579 722.970947,474.666016 
z"/>
<path fill="#A9C562" opacity="1.000000" stroke="none" 
	d="
M737.970947,474.666016 
	C737.891541,474.855927 737.696472,474.885529 737.207397,474.870758 
	C737.227356,474.719482 737.541260,474.612579 737.970947,474.666016 
z"/>
<path fill="#A9C562" opacity="1.000000" stroke="none" 
	d="
M734.970947,474.666016 
	C734.891541,474.855927 734.696472,474.885529 734.207397,474.870758 
	C734.227356,474.719452 734.541260,474.612579 734.970947,474.666016 
z"/>
<path fill="#A9C562" opacity="1.000000" stroke="none" 
	d="
M731.970947,474.666016 
	C731.891541,474.855927 731.696472,474.885529 731.207397,474.870789 
	C731.227356,474.719513 731.541260,474.612640 731.970947,474.666016 
z"/>
<path fill="#A9C562" opacity="1.000000" stroke="none" 
	d="
M701.970947,474.666016 
	C701.891541,474.855927 701.696472,474.885529 701.207397,474.870789 
	C701.227356,474.719513 701.541260,474.612640 701.970947,474.666016 
z"/>
<path fill="#A9C562" opacity="1.000000" stroke="none" 
	d="
M728.970947,474.666016 
	C728.891541,474.855927 728.696472,474.885529 728.207397,474.870789 
	C728.227356,474.719482 728.541260,474.612610 728.970947,474.666016 
z"/>
<path fill="#A9C562" opacity="1.000000" stroke="none" 
	d="
M752.970947,474.666016 
	C752.891541,474.855927 752.696472,474.885529 752.207397,474.870758 
	C752.227356,474.719482 752.541260,474.612579 752.970947,474.666016 
z"/>
<path fill="#E54E3C" opacity="1.000000" stroke="none" 
	d="
M698.131836,940.216553 
	C699.286316,940.062927 700.435181,940.240173 701.808594,940.686096 
	C700.730774,940.818970 699.428528,940.683167 698.131836,940.216553 
z"/>
<path fill="#1B1B1B" opacity="1.000000" stroke="none" 
	d="
M956.732422,667.184387 
	C936.857788,632.368469 953.551697,591.828979 991.626770,581.640564 
	C1028.070068,571.888733 1064.551147,602.224487 1062.494141,639.857544 
	C1060.883179,669.333191 1035.627808,698.115845 997.822144,693.804199 
	C980.241943,691.799255 966.529175,682.535461 956.732422,667.184387 
M1020.110046,604.032593 
	C1009.496155,607.724304 1004.500854,617.199158 1008.233398,626.559631 
	C1011.796631,635.495300 1022.231873,639.741516 1030.942749,635.800354 
	C1038.341064,632.453064 1042.277710,624.201172 1040.182007,616.432800 
	C1037.746948,607.406372 1030.880371,602.951721 1020.110046,604.032593 
z"/>
<path fill="#1B1B1B" opacity="1.000000" stroke="none" 
	d="
M299.910400,586.006592 
	C322.680878,598.338074 333.944031,620.063538 330.988434,645.391357 
	C328.450043,667.144287 311.151306,686.342834 288.550018,692.490723 
	C256.025940,701.337769 222.999374,678.844055 217.713181,645.301575 
	C212.478256,612.084534 239.640045,576.570190 280.117035,580.235474 
	C286.713074,580.832825 293.081970,583.938171 299.910400,586.006592 
M278.893707,629.461792 
	C284.079926,636.766418 292.291321,639.268982 299.827576,635.841797 
	C306.872345,632.638123 311.099579,624.567932 309.518372,617.446716 
	C308.016327,610.682068 304.008636,605.957764 297.375366,604.243225 
	C290.624451,602.498352 284.372528,604.146118 279.911682,609.843872 
	C275.291046,615.745789 274.596863,622.197937 278.893707,629.461792 
z"/>
<path fill="#FCFCFC" opacity="1.000000" stroke="none" 
	d="
M1020.539551,604.000610 
	C1030.880371,602.951721 1037.746948,607.406372 1040.182007,616.432800 
	C1042.277710,624.201172 1038.341064,632.453064 1030.942749,635.800354 
	C1022.231873,639.741516 1011.796631,635.495300 1008.233398,626.559631 
	C1004.500854,617.199158 1009.496155,607.724304 1020.539551,604.000610 
z"/>
<path fill="#FCFCFC" opacity="1.000000" stroke="none" 
	d="
M278.651123,629.173584 
	C274.596863,622.197937 275.291046,615.745789 279.911682,609.843872 
	C284.372528,604.146118 290.624451,602.498352 297.375366,604.243225 
	C304.008636,605.957764 308.016327,610.682068 309.518372,617.446716 
	C311.099579,624.567932 306.872345,632.638123 299.827576,635.841797 
	C292.291321,639.268982 284.079926,636.766418 278.651123,629.173584 
z"/>
</svg>