<svg version="1.1" id="Layer_1" xmlns="http://www.w3.org/2000/svg" xmlns:xlink="http://www.w3.org/1999/xlink" x="0px" y="0px"
	 width="100%" viewBox="0 0 1024 1024" enable-background="new 0 0 1024 1024" xml:space="preserve">
<path fill="#FFFFFF" opacity="1.000000" stroke="none" 
	d="
M542.000000,1025.000000 
	C361.333344,1025.000000 181.166672,1025.000000 1.000000,1025.000000 
	C1.000000,683.666687 1.000000,342.333344 1.000000,1.000000 
	C342.333344,1.000000 683.666687,1.000000 1025.000000,1.000000 
	C1025.000000,342.333344 1025.000000,683.666687 1025.000000,1025.000000 
	C864.166687,1025.000000 703.333313,1025.000000 542.000000,1025.000000 
M368.673248,240.652054 
	C316.250488,248.551544 263.827728,256.451050 211.319504,264.363434 
	C210.388626,266.481964 209.229324,268.682556 208.440186,271.008698 
	C206.869873,275.637634 205.503189,280.335632 203.667862,285.726624 
	C203.466904,287.626343 202.940582,289.559326 203.130768,291.419037 
	C203.563858,295.653717 204.348526,299.852448 204.358749,304.488922 
	C204.014297,307.394348 203.177887,310.342529 203.426010,313.196442 
	C203.972290,319.479950 205.073334,325.714844 205.935043,331.971375 
	C209.336914,356.670868 212.733826,381.371033 215.518463,406.457184 
	C199.427139,411.481628 187.239883,421.968567 175.990707,435.921936 
	C175.990707,401.221680 175.990707,368.049561 175.990707,334.383179 
	C171.291107,334.383179 167.026688,334.383179 162.204254,334.383179 
	C162.204254,329.161163 162.204254,324.421021 162.204254,319.459991 
	C146.921234,319.459991 132.205826,319.459991 116.961639,319.459991 
	C116.961639,324.501343 116.961639,329.246552 116.961639,334.506042 
	C112.683876,334.506042 108.930687,334.506042 104.820305,334.506042 
	C104.820305,336.680450 104.820305,338.327881 104.820297,339.975311 
	C104.820251,431.233917 104.818840,522.492554 104.830933,613.751160 
	C104.831154,615.408630 104.992805,617.066101 104.830521,619.679260 
	C104.830521,626.770264 104.830521,633.861267 104.830521,641.166260 
	C128.769653,641.166260 152.237167,641.166260 175.886688,641.166260 
	C175.886688,633.522278 175.886688,626.112671 176.058914,618.059326 
	C176.149963,617.400574 176.241013,616.741821 176.774628,616.515808 
	C178.585129,618.468384 180.412430,620.405640 182.203445,622.375916 
	C194.379593,635.770752 209.610687,643.387939 227.455719,645.417236 
	C234.297562,646.195312 241.301941,645.544006 248.464722,645.544006 
	C260.541168,734.504944 272.534454,822.853149 284.590729,911.665344 
	C468.410675,884.691772 651.644043,857.804199 835.101257,830.883850 
	C834.012390,823.153870 833.015808,816.079224 832.693420,808.681091 
	C835.789124,808.071960 834.715637,805.915405 834.458557,804.015137 
	C829.595703,768.066833 824.778870,732.112305 819.877808,696.169312 
	C817.091248,675.733276 814.171082,655.315369 811.811279,634.364441 
	C818.947937,627.677124 826.084534,620.989746 833.249939,615.064880 
	C833.498047,616.292297 833.746216,617.519775 833.784729,619.702332 
	C833.784729,626.805298 833.784729,633.908264 833.784729,640.962646 
	C857.604919,640.962646 881.101013,640.962646 904.670837,640.962646 
	C904.670837,633.311035 904.670837,626.033203 904.870178,617.870056 
	C904.890625,524.565125 904.911926,431.260193 904.921021,337.955261 
	C904.921082,336.987793 904.761230,336.020325 904.624939,334.471863 
	C900.568481,334.471863 896.650513,334.471863 892.149780,334.471863 
	C892.149780,329.159668 892.149780,324.416473 892.149780,319.484131 
	C876.834351,319.484131 862.111267,319.484131 846.872681,319.484131 
	C846.872681,324.546112 846.872681,329.300079 846.872681,334.660217 
	C842.130188,334.660217 837.902527,334.660217 833.121704,334.660217 
	C833.121704,367.594757 833.121704,399.912842 833.121704,433.158356 
	C818.164246,416.914154 801.883118,405.111755 779.989807,402.904480 
	C779.977295,402.571625 779.992676,402.234985 779.948303,401.906403 
	C771.548645,339.708588 763.167725,277.508179 754.679626,215.322418 
	C754.202820,211.829269 752.840759,208.456940 751.853027,204.324570 
	C747.430969,200.478622 743.154846,196.445435 738.539062,192.848053 
	C735.061157,190.137482 731.613098,187.220779 726.416382,188.210938 
	C716.380066,190.123276 706.293152,191.815643 696.179810,193.269669 
	C673.919128,196.470215 651.627319,199.454224 629.351318,202.548935 
	C612.642883,204.870148 595.939331,207.226212 579.206177,208.738266 
	C576.064575,185.822144 572.922913,162.906021 569.807495,139.230606 
	C567.582092,138.511185 565.322083,137.082642 563.136963,137.189224 
	C550.420227,137.809433 537.697815,138.541275 525.022888,139.723831 
	C513.843018,140.766876 502.714081,142.384064 491.579529,143.873962 
	C485.148438,144.734528 478.749573,145.837601 472.338348,146.845154 
	C465.781403,147.875610 459.235687,148.981384 452.669678,149.949799 
	C440.519714,151.741776 428.307404,153.166779 416.217682,155.293900 
	C405.870300,157.114487 395.592316,159.445114 385.407806,162.037903 
	C377.854431,163.960846 370.500183,166.665741 362.890656,169.877121 
	C363.612091,176.583527 364.333527,183.289917 364.384277,190.105743 
	C363.952667,191.841095 362.964661,193.647705 363.176331,195.300674 
	C365.091888,210.258377 367.217377,225.189224 368.673248,240.652054 
z"/>
<path fill="#1B66A1" opacity="1.000000" stroke="none" 
	d="
M204.990295,304.065765 
	C204.348526,299.852448 203.563858,295.653717 203.130768,291.419037 
	C202.940582,289.559326 203.466904,287.626343 204.318970,285.366211 
	C211.711761,284.335632 218.479675,283.860443 225.190018,282.957458 
	C242.762039,280.592865 260.315979,278.090027 277.863068,275.545410 
	C287.545380,274.141266 297.200043,272.545685 306.866028,271.029327 
	C315.353149,269.697968 323.822662,268.242188 332.328949,267.047760 
	C343.895599,265.423584 355.507660,264.118805 367.066467,262.444000 
	C375.892456,261.165192 384.640472,259.345642 393.468536,258.084229 
	C408.961151,255.870575 424.508270,254.036316 439.996063,251.791336 
	C456.954498,249.333191 473.854156,246.470200 490.811066,244.000885 
	C512.469360,240.846939 534.168213,237.971466 555.831787,234.852386 
	C565.553833,233.452606 575.229065,231.729385 584.932068,230.194519 
	C602.175415,227.466873 619.398376,224.594894 636.677734,222.116699 
	C650.825012,220.087708 665.058716,218.668106 679.221863,216.741455 
	C688.822815,215.435425 698.364868,213.699814 707.938843,212.191956 
	C717.076843,210.752747 726.228760,209.400955 735.361633,207.930862 
	C740.883972,207.041946 746.381836,206.001022 751.890686,205.028381 
	C752.840759,208.456940 754.202820,211.829269 754.679626,215.322418 
	C763.167725,277.508179 771.548645,339.708588 779.948303,401.906403 
	C779.992676,402.234985 779.977295,402.571625 779.560181,403.360474 
	C754.335083,401.770905 733.063843,409.670715 715.079285,426.659729 
	C701.282898,439.692352 693.143250,456.054016 687.426636,473.572723 
	C687.156433,471.398315 687.033325,469.571472 687.032898,467.744629 
	C687.022156,425.268097 687.024658,382.791565 687.024719,340.315033 
	C687.024719,338.391998 687.024719,336.468933 687.024719,334.070129 
	C684.613037,334.070129 682.978271,334.083099 681.343811,334.067902 
	C673.103271,333.991302 674.097168,335.022766 673.989258,326.469940 
	C673.958862,324.062927 673.785156,321.657684 673.665039,318.980713 
	C662.037231,318.980713 651.053955,318.955322 640.070923,318.995026 
	C636.418701,319.008209 631.353333,317.790497 629.496216,319.668854 
	C627.467834,321.720459 628.177368,326.705444 628.130859,330.417297 
	C628.094910,333.290039 627.011780,334.250641 624.266785,334.103546 
	C621.349792,333.947235 618.417969,334.068390 615.301270,334.068390 
	C615.200073,336.338043 615.077087,337.810638 615.076965,339.283234 
	C615.067749,430.899261 615.064636,522.515320 615.100525,614.131348 
	C615.101135,615.730896 615.581726,617.330261 615.858765,619.403809 
	C615.879272,626.784668 615.879272,633.691528 615.879272,640.641479 
	C639.994385,640.641479 663.194702,640.641479 686.995789,640.641479 
	C686.995789,633.189514 686.995789,626.075745 686.995483,618.495605 
	C687.085266,603.318420 687.175415,588.607422 687.494141,574.180359 
	C691.962891,590.094421 698.921265,604.414917 709.551392,616.638123 
	C725.363525,634.819946 745.493347,644.671936 769.640686,645.838684 
	C784.630005,646.562805 798.609741,643.062866 811.311157,634.889343 
	C814.171082,655.315369 817.091248,675.733276 819.877808,696.169312 
	C824.778870,732.112305 829.595703,768.066833 834.458557,804.015137 
	C834.715637,805.915405 835.789124,808.071960 831.931274,808.835938 
	C820.370911,810.632324 809.585938,812.367126 798.771851,813.895752 
	C776.153381,817.093201 753.506042,820.088196 730.896484,823.346375 
	C714.205566,825.751587 697.566956,828.517822 680.884216,830.982483 
	C665.815369,833.208618 650.702881,835.140259 635.637634,837.389648 
	C617.321228,840.124390 599.054993,843.199463 580.729065,845.866028 
	C558.116699,849.156250 535.446533,852.049255 512.835632,855.348999 
	C487.130554,859.100342 461.469391,863.151611 435.777496,866.994568 
	C419.901764,869.369324 404.001526,871.580017 388.117371,873.899353 
	C372.074188,876.241943 356.041748,878.658875 339.996216,880.985535 
	C324.759674,883.194824 309.517090,885.363770 294.268219,887.486328 
	C281.667633,889.240234 285.073090,891.265015 283.084747,878.930542 
	C280.503632,862.918762 278.861053,846.757751 276.656830,830.682617 
	C273.847778,810.196777 270.802643,789.743286 268.005615,769.255920 
	C265.497803,750.887146 263.241882,732.484070 260.777252,714.109253 
	C257.851074,692.293457 254.870621,670.484497 251.779419,648.691650 
	C251.331238,645.532043 252.063736,644.549988 255.355392,643.796387 
	C272.691254,639.827332 287.263947,631.121094 299.055817,617.651855 
	C308.079315,607.344910 314.532104,595.667664 319.149933,582.868591 
	C319.336121,582.352356 319.890778,581.969055 320.603302,581.140747 
	C321.150757,584.793335 321.461792,587.899719 322.097595,590.938110 
	C325.411804,606.775696 331.919800,620.759583 344.656647,631.473816 
	C355.449097,640.552490 368.198547,644.446045 381.720184,645.712402 
	C396.191895,647.067688 410.759827,645.475830 422.736938,636.730835 
	C432.157959,629.852112 440.005524,620.818359 448.694885,613.174500 
	C449.003754,615.373169 449.169769,617.139282 449.251282,619.372070 
	C449.113464,626.787903 449.060120,633.737061 449.252625,641.044312 
	C450.461304,641.579651 451.423920,641.910339 452.386993,641.911682 
	C473.697235,641.941467 495.007568,641.951172 516.317688,641.892700 
	C517.547119,641.889282 518.774780,641.274170 520.005005,640.974609 
	C520.006775,641.005493 519.944885,641.002380 520.245728,640.710938 
	C520.680298,639.608154 520.930542,638.796936 520.931030,637.985535 
	C520.972229,562.682434 521.000671,487.379364 520.966614,412.076324 
	C520.966064,410.746765 520.199036,409.417542 519.338562,408.081848 
	C515.297668,408.075531 511.707886,408.075531 507.765381,408.075531 
	C507.765381,402.568359 507.765381,397.793457 507.765381,392.719910 
	C492.660645,392.719910 477.925842,392.719910 462.668518,392.719910 
	C462.668518,397.888611 462.668518,402.812439 462.668518,408.186920 
	C457.900055,408.186920 453.642029,408.186920 448.961700,408.186920 
	C448.961700,410.442383 448.961700,412.236084 448.961700,414.029785 
	C448.961304,450.008026 449.154510,485.988220 448.786163,521.962708 
	C448.718018,528.618530 447.412415,535.679260 444.867737,541.800537 
	C440.326477,552.724609 430.911560,557.554993 419.284454,557.566467 
	C407.397919,557.578186 397.980499,551.398804 394.345184,540.339478 
	C392.305695,534.134766 391.339661,527.316101 391.287109,520.762878 
	C391.001160,485.120148 391.150177,449.473938 391.149506,413.828918 
	C391.149445,412.056366 391.149475,410.283813 391.149475,408.019043 
	C386.489349,408.019043 382.403564,408.019043 377.785492,408.019043 
	C377.785492,402.645599 377.785492,397.751587 377.785492,392.797272 
	C362.515900,392.797272 347.810760,392.797272 332.550049,392.797272 
	C332.550049,398.077454 332.550049,402.978241 332.550049,408.285095 
	C328.063477,408.285095 324.134979,408.285095 319.888245,408.285095 
	C319.888245,410.695709 319.896240,412.670837 319.887024,414.645874 
	C319.807068,431.797180 319.723999,448.948486 319.480835,465.797424 
	C318.729980,464.118958 318.109344,462.755096 317.554810,461.364868 
	C302.771606,424.305908 266.233185,396.224060 219.903961,405.033752 
	C219.028046,401.648285 218.274979,398.469421 217.818146,395.248566 
	C215.152573,376.455475 212.567932,357.650879 209.932678,338.853455 
	C208.306610,327.254578 206.639160,315.661469 204.990295,304.065765 
M532.940613,390.136475 
	C532.957825,396.121185 532.975037,402.105865 532.860718,409.009155 
	C532.842163,477.941986 532.822632,546.874817 532.815063,615.807617 
	C532.814941,616.801147 532.965332,617.794617 532.944885,619.751709 
	C532.944885,626.680054 532.944885,633.608459 532.944885,640.661743 
	C556.892090,640.661743 580.101868,640.661743 603.650635,640.661743 
	C603.650635,633.200012 603.650635,626.084595 603.858276,618.056946 
	C603.900330,617.393555 603.979126,616.730164 603.979187,616.066772 
	C603.985779,548.002930 603.988159,479.939087 603.974854,411.875244 
	C603.974609,410.552246 603.786499,409.229279 603.813660,406.995331 
	C603.817505,401.129150 603.821350,395.263000 603.986267,388.403107 
	C603.986267,370.538544 603.986267,352.673981 603.986267,334.193268 
	C599.223877,334.193268 595.106934,334.193268 590.872009,333.240051 
	C590.872009,328.638763 590.872009,324.037476 590.872009,319.215576 
	C575.601868,319.215576 560.913513,319.215576 545.716064,319.215576 
	C545.716064,322.791626 545.405823,326.108917 545.790222,329.343658 
	C546.340088,333.970703 544.358032,335.245148 540.139282,334.751770 
	C537.899780,334.489868 535.604431,334.705383 532.928162,334.705383 
	C532.928162,352.880127 532.928162,370.449524 532.859436,388.626007 
	C532.893433,388.826935 532.927490,389.027863 532.940613,390.136475 
M594.698425,783.695374 
	C602.861694,774.993835 611.562805,766.723572 619.004517,757.443420 
	C624.215332,750.945251 627.706116,743.067871 632.345520,735.239990 
	C643.487000,713.824646 649.629089,691.172119 649.990173,667.791748 
	C639.188416,674.253052 628.927856,681.405945 617.823120,686.830566 
	C591.352234,699.761536 563.615295,709.241272 534.801758,715.730286 
	C519.513733,719.173218 504.062683,720.469360 488.788177,718.607483 
	C465.992065,715.828735 443.433258,711.135315 420.740875,707.457764 
	C410.948273,705.870789 401.074158,704.786804 391.722961,703.539185 
	C397.339630,710.583435 402.957062,717.067810 407.953156,723.999939 
	C422.833832,744.647278 437.260406,765.707581 456.444244,782.709595 
	C463.709198,789.148315 472.191925,794.212830 480.297729,800.572632 
	C505.603516,815.503601 531.978638,816.654358 558.605286,805.233215 
	C569.260925,800.662537 578.896851,793.714355 589.591370,787.661560 
	C591.048401,786.408142 592.505432,785.154724 594.698425,783.695374 
z"/>
<path fill="#EB832D" opacity="1.000000" stroke="none" 
	d="
M687.630920,473.920288 
	C693.143250,456.054016 701.282898,439.692352 715.079285,426.659729 
	C733.063843,409.670715 754.335083,401.770905 779.544189,403.770996 
	C801.883118,405.111755 818.164246,416.914154 833.121704,433.158356 
	C833.121704,399.912842 833.121704,367.594757 833.121704,334.660217 
	C837.902527,334.660217 842.130188,334.660217 846.872681,334.660217 
	C846.872681,329.300079 846.872681,324.546112 846.872681,319.484131 
	C862.111267,319.484131 876.834351,319.484131 892.149780,319.484131 
	C892.149780,324.416473 892.149780,329.159668 892.149780,334.471863 
	C896.650513,334.471863 900.568481,334.471863 904.624939,334.471863 
	C904.761230,336.020325 904.921082,336.987793 904.921021,337.955261 
	C904.911926,431.260193 904.890625,524.565125 904.328369,618.334900 
	C880.522522,618.782227 857.258484,618.764709 833.994385,618.747192 
	C833.746216,617.519775 833.498047,616.292297 833.324951,614.342041 
	C833.399902,606.562866 833.399902,599.506531 833.399902,591.582764 
	C831.230469,593.981995 829.668518,595.854309 827.957092,597.578186 
	C818.401550,607.203064 808.539124,616.562073 794.984558,620.177063 
	C765.968140,627.915649 739.956238,621.876953 717.293701,602.144653 
	C702.111389,588.925415 693.442871,571.652039 687.320312,552.439819 
	C680.963562,525.969421 680.858826,499.927643 687.630920,473.920288 
M743.222107,504.941711 
	C742.249756,519.131104 743.985107,532.764954 750.799072,545.553711 
	C768.682007,579.117004 813.542847,581.845215 833.981262,549.804565 
	C848.433228,527.148865 848.712402,502.510773 835.909241,479.105347 
	C820.695374,451.293030 785.794800,445.358307 762.469971,465.627747 
	C750.891479,475.689606 745.180115,488.970917 743.222107,504.941711 
z"/>
<path fill="#E74D3B" opacity="1.000000" stroke="none" 
	d="
M220.163666,405.220947 
	C266.233185,396.224060 302.771606,424.305908 317.554810,461.364868 
	C318.109344,462.755096 318.729980,464.118958 319.569885,466.241577 
	C319.886292,497.899658 319.952606,528.811218 319.777588,559.998047 
	C313.956726,575.242859 306.193756,588.821106 294.684387,600.122864 
	C262.892059,631.341858 209.262741,631.770020 180.650787,598.124634 
	C179.536957,596.814880 178.344437,595.572083 176.332047,593.353943 
	C176.332047,601.892700 176.332047,608.987915 176.332062,616.083069 
	C176.241013,616.741821 176.149963,617.400574 175.515427,618.413574 
	C151.674332,618.753113 128.376740,618.738342 105.079132,618.723633 
	C104.992805,617.066101 104.831154,615.408630 104.830933,613.751160 
	C104.818840,522.492554 104.820251,431.233917 104.820297,339.975311 
	C104.820305,338.327881 104.820305,336.680450 104.820305,334.506042 
	C108.930687,334.506042 112.683876,334.506042 116.961639,334.506042 
	C116.961639,329.246552 116.961639,324.501343 116.961639,319.459991 
	C132.205826,319.459991 146.921234,319.459991 162.204254,319.459991 
	C162.204254,324.421021 162.204254,329.161163 162.204254,334.383179 
	C167.026688,334.383179 171.291107,334.383179 175.990707,334.383179 
	C175.990707,368.049561 175.990707,401.221680 175.990707,435.921936 
	C187.239883,421.968567 199.427139,411.481628 216.153961,406.224976 
	C217.914200,405.735474 219.038925,405.478210 220.163666,405.220947 
M262.203125,533.270081 
	C266.249298,516.498230 266.117096,499.955963 259.053589,483.931641 
	C244.964996,451.970306 205.094833,443.713409 180.683609,467.628723 
	C157.626511,490.217438 157.485092,535.306641 180.399902,558.084106 
	C197.644943,575.225769 225.364182,576.968994 243.661697,561.813782 
	C252.883148,554.601379 259.032288,545.377930 262.203125,533.270081 
z"/>
<path fill="#152C50" opacity="1.000000" stroke="none" 
	d="
M176.553345,616.299438 
	C176.332047,608.987915 176.332047,601.892700 176.332047,593.353943 
	C178.344437,595.572083 179.536957,596.814880 180.650787,598.124634 
	C209.262741,631.770020 262.892059,631.341858 294.684387,600.122864 
	C306.193756,588.821106 313.956726,575.242859 320.022400,560.329102 
	C320.981354,563.330750 321.313660,566.307434 321.949463,569.217834 
	C326.587860,590.450500 336.696228,608.195923 357.406799,616.913818 
	C388.386871,629.954590 419.843933,625.191345 444.035980,596.111755 
	C445.338348,594.546326 446.649017,592.987732 448.552032,590.713501 
	C448.552032,598.861816 448.552032,605.801880 448.552032,612.741882 
	C440.005524,620.818359 432.157959,629.852112 422.736938,636.730835 
	C410.759827,645.475830 396.191895,647.067688 381.720184,645.712402 
	C368.198547,644.446045 355.449097,640.552490 344.656647,631.473816 
	C331.919800,620.759583 325.411804,606.775696 322.097595,590.938110 
	C321.461792,587.899719 321.150757,584.793335 320.603302,581.140747 
	C319.890778,581.969055 319.336121,582.352356 319.149933,582.868591 
	C314.532104,595.667664 308.079315,607.344910 299.055817,617.651855 
	C287.263947,631.121094 272.691254,639.827332 255.355392,643.796387 
	C252.063736,644.549988 251.331238,645.532043 251.779419,648.691650 
	C254.870621,670.484497 257.851074,692.293457 260.777252,714.109253 
	C263.241882,732.484070 265.497803,750.887146 268.005615,769.255920 
	C270.802643,789.743286 273.847778,810.196777 276.656830,830.682617 
	C278.861053,846.757751 280.503632,862.918762 283.084747,878.930542 
	C285.073090,891.265015 281.667633,889.240234 294.268219,887.486328 
	C309.517090,885.363770 324.759674,883.194824 339.996216,880.985535 
	C356.041748,878.658875 372.074188,876.241943 388.117371,873.899353 
	C404.001526,871.580017 419.901764,869.369324 435.777496,866.994568 
	C461.469391,863.151611 487.130554,859.100342 512.835632,855.348999 
	C535.446533,852.049255 558.116699,849.156250 580.729065,845.866028 
	C599.054993,843.199463 617.321228,840.124390 635.637634,837.389648 
	C650.702881,835.140259 665.815369,833.208618 680.884216,830.982483 
	C697.566956,828.517822 714.205566,825.751587 730.896484,823.346375 
	C753.506042,820.088196 776.153381,817.093201 798.771851,813.895752 
	C809.585938,812.367126 820.370911,810.632324 831.594177,808.997681 
	C833.015808,816.079224 834.012390,823.153870 835.101257,830.883850 
	C651.644043,857.804199 468.410675,884.691772 284.590729,911.665344 
	C272.534454,822.853149 260.541168,734.504944 248.464722,645.544006 
	C241.301941,645.544006 234.297562,646.195312 227.455719,645.417236 
	C209.610687,643.387939 194.379593,635.770752 182.203445,622.375916 
	C180.412430,620.405640 178.585129,618.468384 176.553345,616.299438 
z"/>
<path fill="#1A66A1" opacity="1.000000" stroke="none" 
	d="
M569.781250,139.989899 
	C572.922913,162.906021 576.064575,185.822144 579.150635,209.593048 
	C579.404968,213.467422 579.714844,216.487030 580.060669,219.857010 
	C571.895691,220.970581 564.530090,221.882263 557.196899,223.005615 
	C551.658569,223.854050 546.189148,225.173386 540.640991,225.932098 
	C527.061829,227.789108 513.444336,229.365143 499.861755,231.198303 
	C483.453613,233.412811 467.058960,235.730286 450.671173,238.091446 
	C440.597229,239.542877 430.547119,241.159378 420.486298,242.701843 
	C405.190857,245.046844 389.895447,247.391907 374.752167,249.713638 
	C373.741943,246.155899 372.857300,243.040314 371.986755,239.495361 
	C370.850281,230.198868 369.772736,221.321472 368.526733,212.467789 
	C367.470581,204.963058 366.219666,197.485764 365.054962,189.996323 
	C364.333527,183.289917 363.612091,176.583527 363.322510,169.606598 
	C371.918976,169.356812 380.125519,169.911453 388.238647,169.275223 
	C400.937836,168.279343 413.576477,166.500748 426.235870,165.012009 
	C439.294220,163.476364 452.368622,162.052292 465.395874,160.283829 
	C479.756989,158.334320 494.185822,156.614899 508.380951,153.774719 
	C528.943848,149.660431 549.323486,144.629700 569.781250,139.989899 
z"/>
<path fill="#1E82C1" opacity="1.000000" stroke="none" 
	d="
M371.972626,239.924713 
	C372.857300,243.040314 373.741943,246.155899 374.752167,249.713638 
	C389.895447,247.391907 405.190857,245.046844 420.486298,242.701843 
	C430.547119,241.159378 440.597229,239.542877 450.671173,238.091446 
	C467.058960,235.730286 483.453613,233.412811 499.861755,231.198303 
	C513.444336,229.365143 527.061829,227.789108 540.640991,225.932098 
	C546.189148,225.173386 551.658569,223.854050 557.196899,223.005615 
	C564.530090,221.882263 571.895691,220.970581 580.060669,219.857010 
	C579.714844,216.487030 579.404968,213.467422 579.164307,210.007294 
	C595.939331,207.226212 612.642883,204.870148 629.351318,202.548935 
	C651.627319,199.454224 673.919128,196.470215 696.179810,193.269669 
	C706.293152,191.815643 716.380066,190.123276 726.416382,188.210938 
	C731.613098,187.220779 735.061157,190.137482 738.539062,192.848053 
	C743.154846,196.445435 747.430969,200.478622 751.871826,204.676483 
	C746.381836,206.001022 740.883972,207.041946 735.361633,207.930862 
	C726.228760,209.400955 717.076843,210.752747 707.938843,212.191956 
	C698.364868,213.699814 688.822815,215.435425 679.221863,216.741455 
	C665.058716,218.668106 650.825012,220.087708 636.677734,222.116699 
	C619.398376,224.594894 602.175415,227.466873 584.932068,230.194519 
	C575.229065,231.729385 565.553833,233.452606 555.831787,234.852386 
	C534.168213,237.971466 512.469360,240.846939 490.811066,244.000885 
	C473.854156,246.470200 456.954498,249.333191 439.996063,251.791336 
	C424.508270,254.036316 408.961151,255.870575 393.468536,258.084229 
	C384.640472,259.345642 375.892456,261.165192 367.066467,262.444000 
	C355.507660,264.118805 343.895599,265.423584 332.328949,267.047760 
	C323.822662,268.242188 315.353149,269.697968 306.866028,271.029327 
	C297.200043,272.545685 287.545380,274.141266 277.863068,275.545410 
	C260.315979,278.090027 242.762039,280.592865 225.190018,282.957458 
	C218.479675,283.860443 211.711761,284.335632 204.511230,285.005432 
	C205.503189,280.335632 206.869873,275.637634 208.440186,271.008698 
	C209.229324,268.682556 210.388626,266.481964 211.319504,264.363434 
	C263.827728,256.451050 316.250488,248.551544 369.313354,240.360382 
	C370.626495,240.020706 371.299561,239.972717 371.972626,239.924713 
z"/>
<path fill="#152C50" opacity="1.000000" stroke="none" 
	d="
M687.400208,552.837646 
	C693.442871,571.652039 702.111389,588.925415 717.293701,602.144653 
	C739.956238,621.876953 765.968140,627.915649 794.984558,620.177063 
	C808.539124,616.562073 818.401550,607.203064 827.957092,597.578186 
	C829.668518,595.854309 831.230469,593.981995 833.399902,591.582764 
	C833.399902,599.506531 833.399902,606.562866 833.310547,613.960815 
	C826.084534,620.989746 818.947937,627.677124 811.561218,634.626892 
	C798.609741,643.062866 784.630005,646.562805 769.640686,645.838684 
	C745.493347,644.671936 725.363525,634.819946 709.551392,616.638123 
	C698.921265,604.414917 691.962891,590.094421 687.422180,573.722046 
	C687.214539,566.265747 687.307373,559.551697 687.400208,552.837646 
z"/>
<path fill="#1F82C1" opacity="1.000000" stroke="none" 
	d="
M569.794373,139.610260 
	C549.323486,144.629700 528.943848,149.660431 508.380951,153.774719 
	C494.185822,156.614899 479.756989,158.334320 465.395874,160.283829 
	C452.368622,162.052292 439.294220,163.476364 426.235870,165.012009 
	C413.576477,166.500748 400.937836,168.279343 388.238647,169.275223 
	C380.125519,169.911453 371.918976,169.356812 363.405762,169.179199 
	C370.500183,166.665741 377.854431,163.960846 385.407806,162.037903 
	C395.592316,159.445114 405.870300,157.114487 416.217682,155.293900 
	C428.307404,153.166779 440.519714,151.741776 452.669678,149.949799 
	C459.235687,148.981384 465.781403,147.875610 472.338348,146.845154 
	C478.749573,145.837601 485.148438,144.734528 491.579529,143.873962 
	C502.714081,142.384064 513.843018,140.766876 525.022888,139.723831 
	C537.697815,138.541275 550.420227,137.809433 563.136963,137.189224 
	C565.322083,137.082642 567.582092,138.511185 569.794373,139.610260 
z"/>
<path fill="#122A4F" opacity="1.000000" stroke="none" 
	d="
M833.889526,619.224731 
	C857.258484,618.764709 880.522522,618.782227 904.228760,618.777527 
	C904.670837,626.033203 904.670837,633.311035 904.670837,640.962646 
	C881.101013,640.962646 857.604919,640.962646 833.784729,640.962646 
	C833.784729,633.908264 833.784729,626.805298 833.889526,619.224731 
z"/>
<path fill="#122A4F" opacity="1.000000" stroke="none" 
	d="
M104.954826,619.201416 
	C128.376740,618.738342 151.674332,618.753113 175.429321,618.735413 
	C175.886688,626.112671 175.886688,633.522278 175.886688,641.166260 
	C152.237167,641.166260 128.769653,641.166260 104.830521,641.166260 
	C104.830521,633.861267 104.830521,626.770264 104.954826,619.201416 
z"/>
<path fill="#203759" opacity="1.000000" stroke="none" 
	d="
M219.903961,405.033752 
	C219.038925,405.478210 217.914200,405.735474 216.461029,406.031860 
	C212.733826,381.371033 209.336914,356.670868 205.935043,331.971375 
	C205.073334,325.714844 203.972290,319.479950 203.426010,313.196442 
	C203.177887,310.342529 204.014297,307.394348 204.674515,304.277344 
	C206.639160,315.661469 208.306610,327.254578 209.932678,338.853455 
	C212.567932,357.650879 215.152573,376.455475 217.818146,395.248566 
	C218.274979,398.469421 219.028046,401.648285 219.903961,405.033752 
z"/>
<path fill="#203759" opacity="1.000000" stroke="none" 
	d="
M371.986755,239.495361 
	C371.299561,239.972717 370.626495,240.020706 369.617371,240.098312 
	C367.217377,225.189224 365.091888,210.258377 363.176331,195.300674 
	C362.964661,193.647705 363.952667,191.841095 364.719604,190.051025 
	C366.219666,197.485764 367.470581,204.963058 368.526733,212.467789 
	C369.772736,221.321472 370.850281,230.198868 371.986755,239.495361 
z"/>
<path fill="#EEC319" opacity="1.000000" stroke="none" 
	d="
M448.694885,613.174500 
	C448.552032,605.801880 448.552032,598.861816 448.552032,590.713501 
	C446.649017,592.987732 445.338348,594.546326 444.035980,596.111755 
	C419.843933,625.191345 388.386871,629.954590 357.406799,616.913818 
	C336.696228,608.195923 326.587860,590.450500 321.949463,569.217834 
	C321.313660,566.307434 320.981354,563.330750 320.263733,560.053772 
	C319.952606,528.811218 319.886292,497.899658 319.730896,466.543945 
	C319.723999,448.948486 319.807068,431.797180 319.887024,414.645874 
	C319.896240,412.670837 319.888245,410.695709 319.888245,408.285095 
	C324.134979,408.285095 328.063477,408.285095 332.550049,408.285095 
	C332.550049,402.978241 332.550049,398.077454 332.550049,392.797272 
	C347.810760,392.797272 362.515900,392.797272 377.785492,392.797272 
	C377.785492,397.751587 377.785492,402.645599 377.785492,408.019043 
	C382.403564,408.019043 386.489349,408.019043 391.149475,408.019043 
	C391.149475,410.283813 391.149445,412.056366 391.149506,413.828918 
	C391.150177,449.473938 391.001160,485.120148 391.287109,520.762878 
	C391.339661,527.316101 392.305695,534.134766 394.345184,540.339478 
	C397.980499,551.398804 407.397919,557.578186 419.284454,557.566467 
	C430.911560,557.554993 440.326477,552.724609 444.867737,541.800537 
	C447.412415,535.679260 448.718018,528.618530 448.786163,521.962708 
	C449.154510,485.988220 448.961304,450.008026 448.961700,414.029785 
	C448.961700,412.236084 448.961700,410.442383 448.961700,408.186920 
	C453.642029,408.186920 457.900055,408.186920 462.668518,408.186920 
	C462.668518,402.812439 462.668518,397.888611 462.668518,392.719910 
	C477.925842,392.719910 492.660645,392.719910 507.765381,392.719910 
	C507.765381,397.793457 507.765381,402.568359 507.765381,408.075531 
	C511.707886,408.075531 515.297668,408.075531 519.425049,408.537933 
	C519.985962,478.086761 520.010071,547.173157 520.023132,616.259583 
	C520.023254,617.086853 519.880981,617.914185 519.349121,618.747192 
	C495.707306,618.803711 472.521545,618.854553 449.335785,618.905334 
	C449.169769,617.139282 449.003754,615.373169 448.694885,613.174500 
z"/>
<path fill="#2FABCB" opacity="1.000000" stroke="none" 
	d="
M687.320312,552.439819 
	C687.307373,559.551697 687.214539,566.265747 687.193665,573.438110 
	C687.175415,588.607422 687.085266,603.318420 686.528198,618.462280 
	C662.653625,618.906738 639.245972,618.918274 615.838318,618.929810 
	C615.581726,617.330261 615.101135,615.730896 615.100525,614.131348 
	C615.064636,522.515320 615.067749,430.899261 615.076965,339.283234 
	C615.077087,337.810638 615.200073,336.338043 615.301270,334.068390 
	C618.417969,334.068390 621.349792,333.947235 624.266785,334.103546 
	C627.011780,334.250641 628.094910,333.290039 628.130859,330.417297 
	C628.177368,326.705444 627.467834,321.720459 629.496216,319.668854 
	C631.353333,317.790497 636.418701,319.008209 640.070923,318.995026 
	C651.053955,318.955322 662.037231,318.980713 673.665039,318.980713 
	C673.785156,321.657684 673.958862,324.062927 673.989258,326.469940 
	C674.097168,335.022766 673.103271,333.991302 681.343811,334.067902 
	C682.978271,334.083099 684.613037,334.070129 687.024719,334.070129 
	C687.024719,336.468933 687.024719,338.391998 687.024719,340.315033 
	C687.024658,382.791565 687.022156,425.268097 687.032898,467.744629 
	C687.033325,469.571472 687.156433,471.398315 687.426636,473.572723 
	C680.858826,499.927643 680.963562,525.969421 687.320312,552.439819 
z"/>
<path fill="#A3CD39" opacity="1.000000" stroke="none" 
	d="
M533.045471,618.788147 
	C532.965332,617.794617 532.814941,616.801147 532.815063,615.807617 
	C532.822632,546.874817 532.842163,477.941986 533.396667,408.547882 
	C557.183777,408.026520 580.434875,407.966431 603.686035,407.906311 
	C603.786499,409.229279 603.974609,410.552246 603.974854,411.875244 
	C603.988159,479.939087 603.985779,548.002930 603.979187,616.066772 
	C603.979126,616.730164 603.900330,617.393555 603.325806,618.441528 
	C579.544067,618.813538 556.294800,618.800842 533.045471,618.788147 
z"/>
<path fill="#132B4F" opacity="1.000000" stroke="none" 
	d="
M480.119598,799.903748 
	C472.191925,794.212830 463.709198,789.148315 456.444244,782.709595 
	C437.260406,765.707581 422.833832,744.647278 407.953156,723.999939 
	C402.957062,717.067810 397.339630,710.583435 391.722961,703.539185 
	C401.074158,704.786804 410.948273,705.870789 420.740875,707.457764 
	C443.433258,711.135315 465.992065,715.828735 488.788177,718.607483 
	C504.062683,720.469360 519.513733,719.173218 534.801758,715.730286 
	C563.615295,709.241272 591.352234,699.761536 617.823120,686.830566 
	C628.927856,681.405945 639.188416,674.253052 649.990173,667.791748 
	C649.629089,691.172119 643.487000,713.824646 631.775757,735.444580 
	C627.430298,735.214172 623.606567,734.158264 619.886780,734.445984 
	C597.681946,736.163025 578.015991,744.565979 560.592285,758.205383 
	C556.646118,761.294312 553.485168,765.386597 549.984009,769.011963 
	C550.005249,769.006836 549.985352,768.967163 549.584961,769.026123 
	C545.766052,769.679382 542.347412,770.273621 538.549500,770.860168 
	C537.423706,770.980408 536.677246,771.108337 535.642944,771.194580 
	C534.857483,771.412415 534.359802,771.671875 533.462280,771.916687 
	C532.248474,772.032715 531.417847,772.098877 530.622864,772.303650 
	C511.459106,777.238281 494.713989,786.604797 480.119598,799.903748 
z"/>
<path fill="#A3CD38" opacity="1.000000" stroke="none" 
	d="
M532.928162,388.018890 
	C532.928162,370.449524 532.928162,352.880127 532.928162,334.705383 
	C535.604431,334.705383 537.899780,334.489868 540.139282,334.751770 
	C544.358032,335.245148 546.340088,333.970703 545.790222,329.343658 
	C545.405823,326.108917 545.716064,322.791626 545.716064,319.215576 
	C560.913513,319.215576 575.601868,319.215576 590.872009,319.215576 
	C590.872009,324.037476 590.872009,328.638763 591.248413,333.974335 
	C595.216064,334.915863 598.807251,335.123108 602.676514,335.346405 
	C602.798279,337.099823 602.984558,338.552582 602.986755,340.005646 
	C603.008728,354.292328 602.843384,368.581787 603.095947,382.864014 
	C603.171143,387.115967 601.767517,388.123993 597.715271,388.090454 
	C576.120850,387.911743 554.524109,388.013916 532.928162,388.018890 
z"/>
<path fill="#E54D3C" opacity="1.000000" stroke="none" 
	d="
M535.930786,771.236267 
	C536.677246,771.108337 537.423706,770.980408 538.806519,771.166260 
	C543.673096,771.236633 547.903381,770.993225 552.526367,770.791382 
	C566.245300,773.747803 577.825745,780.364319 588.996948,787.848389 
	C578.896851,793.714355 569.260925,800.662537 558.605286,805.233215 
	C531.978638,816.654358 505.603516,815.503601 480.208679,800.238159 
	C494.713989,786.604797 511.459106,777.238281 530.622864,772.303650 
	C531.417847,772.098877 532.248474,772.032715 533.752014,771.928589 
	C534.937927,771.715637 535.434387,771.475952 535.930786,771.236267 
z"/>
<path fill="#E54E3D" opacity="1.000000" stroke="none" 
	d="
M549.962830,769.017029 
	C553.485168,765.386597 556.646118,761.294312 560.592285,758.205383 
	C578.015991,744.565979 597.681946,736.163025 619.886780,734.445984 
	C623.606567,734.158264 627.430298,735.214172 631.585510,735.727844 
	C627.706116,743.067871 624.215332,750.945251 619.004517,757.443420 
	C611.562805,766.723572 602.861694,774.993835 594.125427,783.477051 
	C580.583313,773.734558 566.080811,768.903564 549.962830,769.017029 
z"/>
<path fill="#122A4F" opacity="1.000000" stroke="none" 
	d="
M449.251282,619.372070 
	C472.521545,618.854553 495.707306,618.803711 519.448120,619.224121 
	C519.983704,626.797729 519.964294,633.900085 519.944885,641.002380 
	C519.944885,641.002380 520.006775,641.005493 519.536682,641.015869 
	C506.306366,641.034668 493.545929,641.092590 480.785980,641.036194 
	C470.192596,640.989380 459.599823,640.807983 449.006775,640.686157 
	C449.060120,633.737061 449.113464,626.787903 449.251282,619.372070 
z"/>
<path fill="#122A4F" opacity="1.000000" stroke="none" 
	d="
M532.995178,619.269897 
	C556.294800,618.800842 579.544067,618.813538 603.222046,618.897705 
	C603.650635,626.084595 603.650635,633.200012 603.650635,640.661743 
	C580.101868,640.661743 556.892090,640.661743 532.944885,640.661743 
	C532.944885,633.608459 532.944885,626.680054 532.995178,619.269897 
z"/>
<path fill="#132B4F" opacity="1.000000" stroke="none" 
	d="
M615.858765,619.403809 
	C639.245972,618.918274 662.653625,618.906738 686.528564,618.928589 
	C686.995789,626.075745 686.995789,633.189514 686.995789,640.641479 
	C663.194702,640.641479 639.994385,640.641479 615.879272,640.641479 
	C615.879272,633.691528 615.879272,626.784668 615.858765,619.403809 
z"/>
<path fill="#152C50" opacity="1.000000" stroke="none" 
	d="
M603.749878,407.450806 
	C580.434875,407.966431 557.183777,408.026520 533.462402,408.088593 
	C532.975037,402.105865 532.957825,396.121185 533.422791,389.675903 
	C557.211731,389.275848 580.518433,389.336334 603.825195,389.396820 
	C603.821350,395.263000 603.817505,401.129150 603.749878,407.450806 
z"/>
<path fill="#54829A" opacity="1.000000" stroke="none" 
	d="
M520.245728,640.710938 
	C519.964294,633.900085 519.983704,626.797729 519.904175,619.218445 
	C519.880981,617.914185 520.023254,617.086853 520.023132,616.259583 
	C520.010071,547.173157 519.985962,478.086761 519.876099,408.544250 
	C520.199036,409.417542 520.966064,410.746765 520.966614,412.076324 
	C521.000671,487.379364 520.972229,562.682434 520.931030,637.985535 
	C520.930542,638.796936 520.680298,639.608154 520.245728,640.710938 
z"/>
<path fill="#1E3051" opacity="1.000000" stroke="none" 
	d="
M549.984009,769.011963 
	C566.080811,768.903564 580.583313,773.734558 593.757446,783.579956 
	C592.505432,785.154724 591.048401,786.408142 589.294189,787.755005 
	C577.825745,780.364319 566.245300,773.747803 552.344910,770.577393 
	C551.175598,769.870300 550.580505,769.418701 549.985352,768.967163 
	C549.985352,768.967163 550.005249,769.006836 549.984009,769.011963 
z"/>
<path fill="#A9CF57" opacity="1.000000" stroke="none" 
	d="
M603.905762,388.899963 
	C580.518433,389.336334 557.211731,389.275848 533.433228,389.222046 
	C532.927490,389.027863 532.893433,388.826935 532.893799,388.322449 
	C554.524109,388.013916 576.120850,387.911743 597.715271,388.090454 
	C601.767517,388.123993 603.171143,387.115967 603.095947,382.864014 
	C602.843384,368.581787 603.008728,354.292328 602.986755,340.005646 
	C602.984558,338.552582 602.798279,337.099823 602.676514,335.346405 
	C598.807251,335.123108 595.216064,334.915863 591.307434,334.450928 
	C595.106934,334.193268 599.223877,334.193268 603.986267,334.193268 
	C603.986267,352.673981 603.986267,370.538544 603.905762,388.899963 
z"/>
<path fill="#54829A" opacity="1.000000" stroke="none" 
	d="
M449.252625,641.044250 
	C459.599823,640.807983 470.192596,640.989380 480.785980,641.036194 
	C493.545929,641.092590 506.306366,641.034668 519.534912,640.984924 
	C518.774780,641.274170 517.547119,641.889282 516.317688,641.892700 
	C495.007568,641.951172 473.697235,641.941467 452.386993,641.911682 
	C451.423920,641.910339 450.461304,641.579651 449.252625,641.044250 
z"/>
<path fill="#FBFAF9" opacity="1.000000" stroke="none" 
	d="
M743.299500,504.493347 
	C745.180115,488.970917 750.891479,475.689606 762.469971,465.627747 
	C785.794800,445.358307 820.695374,451.293030 835.909241,479.105347 
	C848.712402,502.510773 848.433228,527.148865 833.981262,549.804565 
	C813.542847,581.845215 768.682007,579.117004 750.799072,545.553711 
	C743.985107,532.764954 742.249756,519.131104 743.299500,504.493347 
M832.097168,500.542267 
	C822.460938,482.671570 804.059082,472.535645 786.662537,475.516266 
	C757.747742,480.470428 740.628418,508.272339 749.182190,536.384521 
	C758.911499,568.359985 797.081787,579.440918 821.713745,557.440552 
	C837.018982,543.770447 841.273071,521.530823 832.097168,500.542267 
z"/>
<path fill="#FCFAF9" opacity="1.000000" stroke="none" 
	d="
M243.022125,562.022339 
	C225.364182,576.968994 197.644943,575.225769 180.399902,558.084106 
	C157.485092,535.306641 157.626511,490.217438 180.683609,467.628723 
	C205.094833,443.713409 244.964996,451.970306 259.053589,483.931641 
	C266.117096,499.955963 266.249298,516.498230 261.738831,533.635742 
	C260.874390,534.007446 260.474243,534.013428 260.079468,533.595581 
	C260.075012,525.766113 261.257263,518.122375 259.834381,510.998993 
	C255.360306,488.600067 233.260437,472.355865 211.953781,475.333893 
	C193.407272,477.926056 180.389923,488.195282 174.098419,505.869171 
	C167.707275,523.822937 171.274429,540.341980 183.889145,554.555176 
	C196.831985,569.138062 220.134094,575.174500 242.098724,561.050781 
	C242.567764,561.462097 242.794952,561.742188 243.022125,562.022339 
z"/>
<path fill="#EADFDE" opacity="1.000000" stroke="none" 
	d="
M260.074066,534.019409 
	C260.474243,534.013428 260.874390,534.007446 261.574524,533.995667 
	C259.032288,545.377930 252.883148,554.601379 243.341919,561.918091 
	C242.794952,561.742188 242.567764,561.462097 242.265167,560.757690 
	C251.329636,553.722351 256.638702,544.507629 260.074066,534.019409 
z"/>
<path fill="#E54E3D" opacity="1.000000" stroke="none" 
	d="
M549.584961,769.026123 
	C550.580505,769.418701 551.175598,769.870300 551.952148,770.535828 
	C547.903381,770.993225 543.673096,771.236633 539.185852,771.173950 
	C542.347412,770.273621 545.766052,769.679382 549.584961,769.026123 
z"/>
<path fill="#E54E3D" opacity="1.000000" stroke="none" 
	d="
M535.642944,771.194580 
	C535.434387,771.475952 534.937927,771.715637 534.151855,771.943359 
	C534.359802,771.671875 534.857483,771.412415 535.642944,771.194580 
z"/>
<path fill="#1B1B1C" opacity="1.000000" stroke="none" 
	d="
M832.284241,500.872192 
	C841.273071,521.530823 837.018982,543.770447 821.713745,557.440552 
	C797.081787,579.440918 758.911499,568.359985 749.182190,536.384521 
	C740.628418,508.272339 757.747742,480.470428 786.662537,475.516266 
	C804.059082,472.535645 822.460938,482.671570 832.284241,500.872192 
M819.637573,511.746613 
	C820.834656,503.176941 816.714600,496.406708 809.438660,494.987244 
	C802.354980,493.605316 795.845215,497.816132 793.966858,504.995178 
	C792.123962,512.038757 796.201416,519.557129 803.010986,521.671387 
	C809.895935,523.809021 816.334473,520.203552 819.637573,511.746613 
z"/>
<path fill="#1C1C1C" opacity="1.000000" stroke="none" 
	d="
M260.079468,533.595581 
	C256.638702,544.507629 251.329636,553.722351 242.023315,560.626526 
	C220.134094,575.174500 196.831985,569.138062 183.889145,554.555176 
	C171.274429,540.341980 167.707275,523.822937 174.098419,505.869171 
	C180.389923,488.195282 193.407272,477.926056 211.953781,475.333893 
	C233.260437,472.355865 255.360306,488.600067 259.834381,510.998993 
	C261.257263,518.122375 260.075012,525.766113 260.079468,533.595581 
M220.386154,500.087982 
	C219.712967,501.417328 218.866394,502.688263 218.395874,504.085846 
	C216.044724,511.069305 219.551559,518.588318 226.332672,521.299927 
	C232.506165,523.768494 239.623352,520.946777 242.741287,514.794556 
	C245.764481,508.829285 244.029175,501.231537 238.748947,497.314728 
	C233.159775,493.168701 226.764420,493.951416 220.386154,500.087982 
z"/>
<path fill="#FAFAFB" opacity="1.000000" stroke="none" 
	d="
M819.505188,512.127869 
	C816.334473,520.203552 809.895935,523.809021 803.010986,521.671387 
	C796.201416,519.557129 792.123962,512.038757 793.966858,504.995178 
	C795.845215,497.816132 802.354980,493.605316 809.438660,494.987244 
	C816.714600,496.406708 820.834656,503.176941 819.505188,512.127869 
z"/>
<path fill="#FAFAFB" opacity="1.000000" stroke="none" 
	d="
M220.631775,499.794922 
	C226.764420,493.951416 233.159775,493.168701 238.748947,497.314728 
	C244.029175,501.231537 245.764481,508.829285 242.741287,514.794556 
	C239.623352,520.946777 232.506165,523.768494 226.332672,521.299927 
	C219.551559,518.588318 216.044724,511.069305 218.395874,504.085846 
	C218.866394,502.688263 219.712967,501.417328 220.631775,499.794922 
z"/>
</svg>